<?xml version="1.0" encoding="UTF-8"?>
<!DOCTYPE svg PUBLIC "-//W3C//DTD SVG 1.1//EN" "http://www.w3.org/Graphics/SVG/1.1/DTD/svg11.dtd">
<!-- Creator: CorelDRAW -->
<svg xmlns="http://www.w3.org/2000/svg" xml:space="preserve" width="162.56mm" height="642.62mm" version="1.1" style="shape-rendering:geometricPrecision; text-rendering:geometricPrecision; image-rendering:optimizeQuality; fill-rule:evenodd; clip-rule:evenodd"
viewBox="0 0 16255.98 64261.98"
 xmlns:xlink="http://www.w3.org/1999/xlink"
 xmlns:xodm="http://www.corel.com/coreldraw/odm/2003">
 <defs>
  <style type="text/css">
   <![CDATA[
    .fil167 {fill:#7CBA46}
    .fil163 {fill:#77B84C}
    .fil165 {fill:#77B849}
    .fil166 {fill:#77B847}
    .fil164 {fill:#78B74B}
    .fil162 {fill:#77B54B}
    .fil158 {fill:#74B54F}
    .fil160 {fill:#75B64D}
    .fil159 {fill:#74B54D}
    .fil161 {fill:#74B44B}
    .fil155 {fill:#70B454}
    .fil153 {fill:#6FB353}
    .fil156 {fill:#6FB351}
    .fil157 {fill:#70B450}
    .fil154 {fill:#70B253}
    .fil151 {fill:#6DB255}
    .fil152 {fill:#6DB254}
    .fil150 {fill:#6DB155}
    .fil149 {fill:#6CB054}
    .fil147 {fill:#68AF57}
    .fil148 {fill:#68AF55}
    .fil141 {fill:#67AD5C}
    .fil143 {fill:#68AE5A}
    .fil144 {fill:#68AE58}
    .fil145 {fill:#68AD58}
    .fil146 {fill:#68AE57}
    .fil140 {fill:#64AC5C}
    .fil142 {fill:#65AD5B}
    .fil138 {fill:#64AC60}
    .fil139 {fill:#65AC5E}
    .fil135 {fill:#60AB62}
    .fil134 {fill:#5FAA61}
    .fil137 {fill:#60AB60}
    .fil136 {fill:#60A95F}
    .fil133 {fill:#60A863}
    .fil132 {fill:#5DA963}
    .fil130 {fill:#5DA864}
    .fil129 {fill:#5DA764}
    .fil131 {fill:#5DA863}
    .fil128 {fill:#59A767}
    .fil126 {fill:#59A567}
    .fil127 {fill:#59A566}
    .fil124 {fill:#55A56B}
    .fil125 {fill:#56A56A}
    .fil119 {fill:#55A46F}
    .fil120 {fill:#56A46D}
    .fil121 {fill:#55A36C}
    .fil123 {fill:#56A46B}
    .fil122 {fill:#55A36A}
    .fil118 {fill:#55A26E}
    .fil116 {fill:#50A26E}
    .fil112 {fill:#4FA172}
    .fil114 {fill:#50A171}
    .fil115 {fill:#50A06F}
    .fil117 {fill:#51A16E}
    .fil108 {fill:#4AA076}
    .fil109 {fill:#4AA074}
    .fil110 {fill:#4A9F73}
    .fil111 {fill:#4BA072}
    .fil113 {fill:#4BA071}
    .fil105 {fill:#499C77}
    .fil106 {fill:#499C75}
    .fil107 {fill:#4A9E74}
    .fil101 {fill:#459C7A}
    .fil102 {fill:#459C79}
    .fil104 {fill:#469C77}
    .fil97 {fill:#45997B}
    .fil99 {fill:#459A7B}
    .fil98 {fill:#45997A}
    .fil100 {fill:#469A79}
    .fil103 {fill:#469B78}
    .fil94 {fill:#3F987F}
    .fil92 {fill:#3F987E}
    .fil95 {fill:#40987D}
    .fil96 {fill:#40987B}
    .fil90 {fill:#3F9781}
    .fil91 {fill:#3F977F}
    .fil93 {fill:#40977E}
    .fil86 {fill:#3A9584}
    .fil87 {fill:#3B9582}
    .fil88 {fill:#3B9581}
    .fil89 {fill:#3C9680}
    .fil83 {fill:#3A9486}
    .fil84 {fill:#3B9484}
    .fil85 {fill:#3B9382}
    .fil75 {fill:#34928A}
    .fil76 {fill:#339189}
    .fil77 {fill:#349288}
    .fil79 {fill:#359287}
    .fil81 {fill:#359387}
    .fil80 {fill:#359286}
    .fil82 {fill:#369386}
    .fil71 {fill:#328F8D}
    .fil72 {fill:#338F8C}
    .fil73 {fill:#33918C}
    .fil74 {fill:#34908A}
    .fil78 {fill:#359188}
    .fil69 {fill:#338E8E}
    .fil70 {fill:#2D8F8D}
    .fil61 {fill:#2A8C94}
    .fil64 {fill:#2B8C93}
    .fil65 {fill:#2B8C92}
    .fil66 {fill:#2C8C90}
    .fil67 {fill:#2C8D90}
    .fil68 {fill:#2E8E8E}
    .fil57 {fill:#298A97}
    .fil58 {fill:#2A8A96}
    .fil60 {fill:#2B8C95}
    .fil59 {fill:#2B8A93}
    .fil62 {fill:#2B8C94}
    .fil63 {fill:#2C8B92}
    .fil53 {fill:#20899A}
    .fil54 {fill:#208999}
    .fil55 {fill:#218998}
    .fil56 {fill:#218996}
    .fil49 {fill:#1E879D}
    .fil50 {fill:#1F879C}
    .fil51 {fill:#1F879B}
    .fil52 {fill:#208799}
    .fil46 {fill:#1E869F}
    .fil47 {fill:#1F859E}
    .fil48 {fill:#1F859C}
    .fil44 {fill:#1A849F}
    .fil45 {fill:#1A849E}
    .fil42 {fill:#1C84A1}
    .fil43 {fill:#1B83A0}
    .fil41 {fill:#1D83A2}
    .fil39 {fill:#1782A3}
    .fil40 {fill:#1782A2}
    .fil38 {fill:#1181A4}
    .fil37 {fill:#1081A5}
    .fil36 {fill:#1080A4}
    .fil33 {fill:#1081A6}
    .fil35 {fill:#1081A5}
    .fil32 {fill:#1181A6}
    .fil34 {fill:#127FA5}
    .fil31 {fill:#0D7FA7}
    .fil30 {fill:#117FA7}
    .fil29 {fill:#147EA8}
    .fil28 {fill:#0F7FA9}
    .fil27 {fill:#127FAB}
    .fil25 {fill:#157EAB}
    .fil26 {fill:#167DAA}
    .fil24 {fill:#147DAC}
    .fil23 {fill:#157DAC}
    .fil22 {fill:#167CAC}
    .fil21 {fill:#107CAD}
    .fil20 {fill:#107CAE}
    .fil19 {fill:#127BAD}
    .fil18 {fill:#147BAE}
    .fil17 {fill:#107AAF}
    .fil16 {fill:#117AB1}
    .fil14 {fill:#147AB3}
    .fil15 {fill:#1479B1}
    .fil13 {fill:#0F79B4}
    .fil12 {fill:#1078B3}
    .fil11 {fill:#1077B3}
    .fil10 {fill:#0978B6}
    .fil9 {fill:#0A77B6}
    .fil6 {fill:#0677B9}
    .fil7 {fill:#0676B7}
    .fil8 {fill:#0776B5}
    .fil4 {fill:#0D76BA}
    .fil3 {fill:#0B76BA}
    .fil5 {fill:#0C75B7}
    .fil2 {fill:#0F75BB}
    .fil1 {fill:#1274BA}
    .fil0 {fill:#1672B8}
   ]]>
  </style>
  <clipPath id="id0">
   <path d="M7917.33 30742.32l8346.94 0 0 3283.88 -8346.94 0 0 -3283.88z"/>
  </clipPath>
 </defs>
<symbol id="Symbol1" viewBox="-8.29 30230.19 16272.56 3801.6">
 <polygon class="fil0" points="-7.89,33515.98 108.45,34031.79 -7.89,34031.79 "/>
 <polygon class="fil0" points="-7.89,33424.86 129,34031.79 98.16,34031.79 -7.89,33561.58 "/>
 <polygon class="fil0" points="-7.89,33333.65 149.57,34031.79 118.73,34031.79 -7.89,33470.4 "/>
 <polygon class="fil0" points="-7.89,33242.5 170.13,34031.79 139.29,34031.79 -7.89,33379.23 "/>
 <polygon class="fil1" points="-7.89,33151.33 190.69,34031.79 159.85,34031.79 -7.89,33288.08 "/>
 <polygon class="fil1" points="-7.89,33060.18 211.25,34031.79 180.41,34031.79 -7.89,33196.92 "/>
 <polygon class="fil1" points="-7.89,32969.01 231.81,34031.79 200.97,34031.79 -7.89,33105.76 "/>
 <polygon class="fil1" points="-7.89,32877.84 252.38,34031.79 221.54,34031.79 -7.89,33014.58 "/>
 <polygon class="fil1" points="-7.89,32786.67 272.94,34031.79 242.1,34031.79 -7.89,32923.42 "/>
 <polygon class="fil1" points="-7.89,32695.52 293.5,34031.79 262.65,34031.79 -7.89,32832.29 "/>
 <polygon class="fil1" points="-7.89,32604.35 314.06,34031.79 283.22,34031.79 -7.89,32741.09 "/>
 <polygon class="fil1" points="-7.89,32513.21 334.62,34031.79 303.78,34031.79 -7.89,32649.92 "/>
 <polygon class="fil2" points="-7.89,32422.02 355.19,34031.79 324.34,34031.79 -7.89,32558.77 "/>
 <polygon class="fil2" points="-7.89,32330.85 375.75,34031.79 344.9,34031.79 -7.89,32467.62 "/>
 <polygon class="fil2" points="-7.89,32239.74 396.3,34031.79 365.46,34031.79 -7.89,32376.46 "/>
 <polygon class="fil2" points="-7.89,32148.53 416.87,34031.79 386.03,34031.79 -7.89,32285.27 "/>
 <polygon class="fil2" points="-7.89,32057.42 437.42,34031.79 406.59,34031.79 -7.89,32194.1 "/>
 <polygon class="fil2" points="-7.89,31966.21 457.99,34031.79 427.15,34031.79 -7.89,32102.96 "/>
 <polygon class="fil2" points="-7.89,31875.04 478.55,34031.79 447.71,34031.79 -7.89,32011.78 "/>
 <polygon class="fil2" points="-7.89,31783.89 499.11,34031.79 468.27,34031.79 -7.89,31920.64 "/>
 <polygon class="fil3" points="-7.89,31692.73 519.67,34031.79 488.84,34031.79 -7.89,31829.46 "/>
 <polygon class="fil3" points="-7.89,31601.58 540.23,34031.79 509.4,34031.79 -7.89,31738.29 "/>
 <polygon class="fil3" points="-7.89,31510.39 560.8,34031.79 529.96,34031.79 -7.89,31647.14 "/>
 <polygon class="fil3" points="-7.89,31419.22 581.36,34031.79 550.52,34031.79 -7.89,31555.97 "/>
 <polygon class="fil3" points="-7.89,31328.08 601.92,34031.79 571.07,34031.79 -7.89,31464.87 "/>
 <polygon class="fil3" points="-7.89,31236.9 622.48,34031.79 591.64,34031.79 -7.89,31373.64 "/>
 <polygon class="fil3" points="-7.89,31145.76 643.04,34031.79 612.2,34031.79 -7.89,31282.47 "/>
 <polygon class="fil4" points="-7.89,31054.58 663.61,34031.79 632.76,34031.79 -7.89,31191.33 "/>
 <polygon class="fil5" points="-7.89,30963.41 684.17,34031.79 653.32,34031.79 -7.89,31100.16 "/>
 <polygon class="fil5" points="-7.89,30872.26 704.73,34031.79 673.88,34031.79 -7.89,31009.01 "/>
 <polygon class="fil5" points="-7.89,30781.09 725.29,34031.79 694.45,34031.79 -7.89,30917.83 "/>
 <polygon class="fil5" points="-7.89,30689.99 745.84,34031.79 715.01,34031.79 -7.89,30826.66 "/>
 <polygon class="fil5" points="-7.89,30598.77 766.41,34031.79 735.57,34031.79 -7.89,30735.51 "/>
 <polygon class="fil5" points="-7.89,30507.59 786.97,34031.79 756.13,34031.79 -7.89,30644.34 "/>
 <polygon class="fil6" points="-7.89,30416.45 807.53,34031.79 776.69,34031.79 -7.89,30553.2 "/>
 <polygon class="fil6" points="-7.89,30325.27 828.09,34031.79 797.26,34031.79 -7.89,30462.02 "/>
 <polygon class="fil7" points="-7.89,30234.09 848.66,34031.79 817.82,34031.79 -7.89,30370.84 "/>
 <polygon class="fil7" points="-7.89,30234.09 -7.88,30234.09 12.66,30234.09 869.22,34031.79 838.38,34031.79 -7.89,30279.71 "/>
 <polygon class="fil7" points="33.23,30234.09 889.78,34031.79 858.94,34031.79 2.39,30234.09 "/>
 <polygon class="fil7" points="53.79,30234.09 910.34,34031.79 879.5,34031.79 22.94,30234.09 "/>
 <polygon class="fil7" points="74.35,30234.09 930.91,34031.79 900.06,34031.79 43.51,30234.09 "/>
 <polygon class="fil7" points="94.92,30234.09 951.46,34031.79 920.62,34031.79 64.07,30234.09 "/>
 <polygon class="fil7" points="115.47,30234.09 972.03,34031.79 941.18,34031.79 84.63,30234.09 "/>
 <polygon class="fil7" points="136.04,30234.09 992.59,34031.79 961.74,34031.79 105.19,30234.09 "/>
 <polygon class="fil8" points="156.59,30234.09 1013.15,34031.79 982.3,34031.79 125.75,30234.09 "/>
 <polygon class="fil8" points="177.16,30234.09 1033.71,34031.79 1002.86,34031.79 146.32,30234.09 "/>
 <polygon class="fil8" points="197.71,30234.09 1054.27,34031.79 1023.43,34031.79 166.88,30234.09 "/>
 <polygon class="fil9" points="218.28,30234.09 1074.83,34031.79 1043.99,34031.79 187.43,30234.09 "/>
 <polygon class="fil9" points="238.84,30234.09 1095.39,34031.79 1064.55,34031.79 208,30234.09 "/>
 <polygon class="fil9" points="259.4,30234.09 1115.95,34031.79 1085.11,34031.79 228.56,30234.09 "/>
 <polygon class="fil9" points="279.96,30234.09 1136.51,34031.79 1105.68,34031.79 249.12,30234.09 "/>
 <polygon class="fil9" points="300.53,30234.09 1157.08,34031.79 1126.23,34031.79 269.69,30234.09 "/>
 <polygon class="fil10" points="321.09,30234.09 1177.64,34031.79 1146.8,34031.79 290.24,30234.09 "/>
 <polygon class="fil10" points="341.65,30234.09 1198.2,34031.79 1167.36,34031.79 310.81,30234.09 "/>
 <polygon class="fil10" points="362.21,30234.09 1218.76,34031.79 1187.92,34031.79 331.36,30234.09 "/>
 <polygon class="fil10" points="382.77,30234.09 1239.33,34031.79 1208.48,34031.79 351.93,30234.09 "/>
 <polygon class="fil10" points="403.34,30234.09 1259.89,34031.79 1229.04,34031.79 372.48,30234.09 "/>
 <polygon class="fil10" points="423.89,30234.09 1280.45,34031.79 1249.6,34031.79 393.05,30234.09 "/>
 <polygon class="fil10" points="444.46,30234.09 1301.01,34031.79 1270.16,34031.79 413.61,30234.09 "/>
 <polygon class="fil10" points="465.01,30234.09 1321.57,34031.79 1290.72,34031.79 434.17,30234.09 "/>
 <polygon class="fil11" points="485.58,30234.09 1342.13,34031.79 1311.28,34031.79 454.73,30234.09 "/>
 <polygon class="fil11" points="506.13,30234.09 1362.69,34031.79 1331.85,34031.79 475.3,30234.09 "/>
 <polygon class="fil11" points="526.7,30234.09 1383.25,34031.79 1352.41,34031.79 495.86,30234.09 "/>
 <polygon class="fil11" points="547.25,30234.09 1403.81,34031.79 1372.98,34031.79 516.42,30234.09 "/>
 <polygon class="fil11" points="567.82,30234.09 1424.37,34031.79 1393.53,34031.79 536.99,30234.09 "/>
 <polygon class="fil11" points="588.39,30234.09 1444.93,34031.79 1414.1,34031.79 557.54,30234.09 "/>
 <polygon class="fil11" points="608.95,30234.09 1465.5,34031.79 1434.66,34031.79 578.11,30234.09 "/>
 <polygon class="fil11" points="629.5,30234.09 1486.05,34031.79 1455.22,34031.79 598.66,30234.09 "/>
 <polygon class="fil12" points="650.07,30234.09 1506.62,34031.79 1475.78,34031.79 619.23,30234.09 "/>
 <polygon class="fil12" points="670.63,30234.09 1527.18,34031.79 1496.34,34031.79 639.78,30234.09 "/>
 <polygon class="fil12" points="691.19,30234.09 1547.75,34031.79 1516.9,34031.79 660.35,30234.09 "/>
 <polygon class="fil12" points="711.76,30234.09 1568.3,34031.79 1537.46,34031.79 680.9,30234.09 "/>
 <polygon class="fil12" points="732.31,30234.09 1588.87,34031.79 1558.02,34031.79 701.47,30234.09 "/>
 <polygon class="fil12" points="752.88,30234.09 1609.42,34031.79 1578.58,34031.79 722.03,30234.09 "/>
 <polygon class="fil13" points="773.43,30234.09 1629.99,34031.79 1599.15,34031.79 742.6,30234.09 "/>
 <polygon class="fil13" points="794,30234.09 1650.55,34031.79 1619.7,34031.79 763.16,30234.09 "/>
 <polygon class="fil14" points="814.55,30234.09 1671.11,34031.79 1640.27,34031.79 783.72,30234.09 "/>
 <polygon class="fil14" points="835.12,30234.09 1691.67,34031.79 1660.82,34031.79 804.27,30234.09 "/>
 <polygon class="fil14" points="855.67,30234.09 1712.23,34031.79 1681.39,34031.79 824.84,30234.09 "/>
 <polygon class="fil14" points="876.24,30234.09 1732.79,34031.79 1701.95,34031.79 845.41,30234.09 "/>
 <polygon class="fil14" points="896.8,30234.09 1753.35,34031.79 1722.51,34031.79 865.96,30234.09 "/>
 <polygon class="fil14" points="917.37,30234.09 1773.92,34031.79 1743.07,34031.79 886.53,30234.09 "/>
 <polygon class="fil14" points="937.93,30234.09 1794.47,34031.79 1763.64,34031.79 907.08,30234.09 "/>
 <polygon class="fil14" points="958.49,30234.09 1815.04,34031.79 1784.2,34031.79 927.65,30234.09 "/>
 <polygon class="fil15" points="979.05,30234.09 1835.6,34031.79 1804.76,34031.79 948.2,30234.09 "/>
 <polygon class="fil15" points="999.61,30234.09 1856.16,34031.79 1825.32,34031.79 968.77,30234.09 "/>
 <polygon class="fil15" points="1020.18,30234.09 1876.72,34031.79 1845.88,34031.79 989.32,30234.09 "/>
 <polygon class="fil16" points="1040.73,30234.09 1897.28,34031.79 1866.44,34031.79 1009.89,30234.09 "/>
 <polygon class="fil16" points="1061.3,30234.09 1917.85,34031.79 1887,34031.79 1030.44,30234.09 "/>
 <polygon class="fil16" points="1081.85,30234.09 1938.41,34031.79 1907.57,34031.79 1051.02,30234.09 "/>
 <polygon class="fil16" points="1102.42,30234.09 1958.97,34031.79 1928.12,34031.79 1071.57,30234.09 "/>
 <polygon class="fil16" points="1122.97,30234.09 1979.53,34031.79 1948.69,34031.79 1092.14,30234.09 "/>
 <polygon class="fil17" points="1143.54,30234.09 2000.09,34031.79 1969.24,34031.79 1112.7,30234.09 "/>
 <polygon class="fil17" points="1164.09,30234.09 2020.65,34031.79 1989.81,34031.79 1133.26,30234.09 "/>
 <polygon class="fil17" points="1184.67,30234.09 2041.22,34031.79 2010.37,34031.79 1153.82,30234.09 "/>
 <polygon class="fil17" points="1205.22,30234.09 2061.77,34031.79 2030.93,34031.79 1174.38,30234.09 "/>
 <polygon class="fil17" points="1225.79,30234.09 2082.34,34031.79 2051.49,34031.79 1194.95,30234.09 "/>
 <polygon class="fil17" points="1246.34,30234.09 2102.89,34031.79 2072.05,34031.79 1215.5,30234.09 "/>
 <polygon class="fil17" points="1266.91,30234.09 2123.46,34031.79 2092.62,34031.79 1236.07,30234.09 "/>
 <polygon class="fil17" points="1287.48,30234.09 2144.02,34031.79 2113.18,34031.79 1256.62,30234.09 "/>
 <polygon class="fil18" points="1308.03,30234.09 2164.58,34031.79 2133.74,34031.79 1277.19,30234.09 "/>
 <polygon class="fil18" points="1328.6,30234.09 2185.14,34031.79 2154.3,34031.79 1297.74,30234.09 "/>
 <polygon class="fil18" points="1349.15,30234.09 2205.71,34031.79 2174.86,34031.79 1318.31,30234.09 "/>
 <polygon class="fil18" points="1369.72,30234.09 2226.27,34031.79 2195.42,34031.79 1338.86,30234.09 "/>
 <polygon class="fil18" points="1390.27,30234.09 2246.83,34031.79 2215.99,34031.79 1359.44,30234.09 "/>
 <polygon class="fil18" points="1410.84,30234.09 2267.39,34031.79 2236.54,34031.79 1379.99,30234.09 "/>
 <polygon class="fil18" points="1431.39,30234.09 2287.95,34031.79 2257.11,34031.79 1400.56,30234.09 "/>
 <polygon class="fil18" points="1451.96,30234.09 2308.51,34031.79 2277.66,34031.79 1421.11,30234.09 "/>
 <polygon class="fil19" points="1472.51,30234.09 2329.07,34031.79 2298.23,34031.79 1441.68,30234.09 "/>
 <polygon class="fil19" points="1493.09,30234.09 2349.64,34031.79 2318.79,34031.79 1462.25,30234.09 "/>
 <polygon class="fil19" points="1513.63,30234.09 2370.19,34031.79 2339.35,34031.79 1482.8,30234.09 "/>
 <polygon class="fil19" points="1534.21,30234.09 2390.76,34031.79 2359.91,34031.79 1503.37,30234.09 "/>
 <polygon class="fil19" points="1554.77,30234.09 2411.31,34031.79 2380.48,34031.79 1523.92,30234.09 "/>
 <polygon class="fil19" points="1575.33,30234.09 2431.88,34031.79 2401.04,34031.79 1544.49,30234.09 "/>
 <polygon class="fil20" points="1595.89,30234.09 2452.44,34031.79 2421.6,34031.79 1565.04,30234.09 "/>
 <polygon class="fil21" points="1616.45,30234.09 2473,34031.79 2442.16,34031.79 1585.61,30234.09 "/>
 <polygon class="fil21" points="1637.02,30234.09 2493.56,34031.79 2462.72,34031.79 1606.16,30234.09 "/>
 <polygon class="fil21" points="1657.57,30234.09 2514.12,34031.79 2483.29,34031.79 1626.74,30234.09 "/>
 <polygon class="fil22" points="1678.14,30234.09 2534.69,34031.79 2503.84,34031.79 1647.28,30234.09 "/>
 <polygon class="fil22" points="1698.69,30234.09 2555.25,34031.79 2524.41,34031.79 1667.86,30234.09 "/>
 <polygon class="fil22" points="1719.26,30234.09 2575.81,34031.79 2544.96,34031.79 1688.4,30234.09 "/>
 <polygon class="fil22" points="1739.81,30234.09 2596.37,34031.79 2565.53,34031.79 1708.98,30234.09 "/>
 <polygon class="fil22" points="1760.38,30234.09 2616.93,34031.79 2586.09,34031.79 1729.54,30234.09 "/>
 <polygon class="fil23" points="1780.93,30234.09 2637.49,34031.79 2606.65,34031.79 1750.1,30234.09 "/>
 <polygon class="fil23" points="1801.51,30234.09 2658.06,34031.79 2627.21,34031.79 1770.66,30234.09 "/>
 <polygon class="fil23" points="1822.06,30234.09 2678.61,34031.79 2647.78,34031.79 1791.22,30234.09 "/>
 <polygon class="fil23" points="1842.63,30234.09 2699.18,34031.79 2668.34,34031.79 1811.79,30234.09 "/>
 <polygon class="fil24" points="1863.17,30234.09 2719.73,34031.79 2688.89,34031.79 1832.34,30234.09 "/>
 <polygon class="fil24" points="1883.75,30234.09 2740.3,34031.79 2709.46,34031.79 1852.91,30234.09 "/>
 <polygon class="fil24" points="1904.31,30234.09 2760.86,34031.79 2730.02,34031.79 1873.46,30234.09 "/>
 <polygon class="fil24" points="1924.87,30234.09 2781.42,34031.79 2750.58,34031.79 1894.03,30234.09 "/>
 <polygon class="fil25" points="1945.44,30234.09 2801.98,34031.79 2771.14,34031.79 1914.58,30234.09 "/>
 <polygon class="fil25" points="1965.99,30234.09 2822.55,34031.79 2791.71,34031.79 1935.16,30234.09 "/>
 <polygon class="fil25" points="1986.56,30234.09 2843.11,34031.79 2812.26,34031.79 1955.7,30234.09 "/>
 <polygon class="fil25" points="2007.11,30234.09 2863.67,34031.79 2832.83,34031.79 1976.28,30234.09 "/>
 <polygon class="fil25" points="2027.68,30234.09 2884.23,34031.79 2853.38,34031.79 1996.83,30234.09 "/>
 <polygon class="fil25" points="2048.23,30234.09 2904.79,34031.79 2873.95,34031.79 2017.4,30234.09 "/>
 <polygon class="fil25" points="2068.8,30234.09 2925.35,34031.79 2894.51,34031.79 2037.96,30234.09 "/>
 <polygon class="fil25" points="2089.35,30234.09 2945.91,34031.79 2915.07,34031.79 2058.52,30234.09 "/>
 <polygon class="fil26" points="2109.93,30234.09 2966.48,34031.79 2935.63,34031.79 2079.08,30234.09 "/>
 <polygon class="fil27" points="2130.47,30234.09 2987.03,34031.79 2956.19,34031.79 2099.64,30234.09 "/>
 <polygon class="fil27" points="2151.05,30234.09 3007.6,34031.79 2976.76,34031.79 2120.21,30234.09 "/>
 <polygon class="fil27" points="2171.6,30234.09 3028.15,34031.79 2997.32,34031.79 2140.76,30234.09 "/>
 <polygon class="fil27" points="2192.17,30234.09 3048.72,34031.79 3017.88,34031.79 2161.33,30234.09 "/>
 <polygon class="fil27" points="2212.73,30234.09 3069.28,34031.79 3038.44,34031.79 2181.88,30234.09 "/>
 <polygon class="fil27" points="2233.29,30234.09 3089.84,34031.79 3059,34031.79 2202.45,30234.09 "/>
 <polygon class="fil27" points="2253.86,30234.09 3110.41,34031.79 3079.56,34031.79 2223,30234.09 "/>
 <polygon class="fil28" points="2274.42,30234.09 3130.97,34031.79 3100.13,34031.79 2243.58,30234.09 "/>
 <polygon class="fil28" points="2294.98,30234.09 3151.53,34031.79 3120.68,34031.79 2264.12,30234.09 "/>
 <polygon class="fil28" points="2315.53,30234.09 3172.09,34031.79 3141.25,34031.79 2284.7,30234.09 "/>
 <polygon class="fil28" points="2336.1,30234.09 3192.65,34031.79 3161.8,34031.79 2305.24,30234.09 "/>
 <polygon class="fil28" points="2356.65,30234.09 3213.21,34031.79 3182.37,34031.79 2325.82,30234.09 "/>
 <polygon class="fil28" points="2377.23,30234.09 3233.78,34031.79 3202.93,34031.79 2346.38,30234.09 "/>
 <polygon class="fil28" points="2397.77,30234.09 3254.33,34031.79 3223.49,34031.79 2366.94,30234.09 "/>
 <polygon class="fil29" points="2418.35,30234.09 3274.9,34031.79 3244.05,34031.79 2387.51,30234.09 "/>
 <polygon class="fil30" points="2438.9,30234.09 3295.45,34031.79 3264.62,34031.79 2408.06,30234.09 "/>
 <polygon class="fil30" points="2459.47,30234.09 3316.02,34031.79 3285.18,34031.79 2428.63,30234.09 "/>
 <polygon class="fil30" points="2480.03,30234.09 3336.58,34031.79 3305.73,34031.79 2449.18,30234.09 "/>
 <polygon class="fil30" points="2500.59,30234.09 3357.14,34031.79 3326.3,34031.79 2469.75,30234.09 "/>
 <polygon class="fil30" points="2521.15,30234.09 3377.7,34031.79 3346.86,34031.79 2490.3,30234.09 "/>
 <polygon class="fil30" points="2541.71,30234.09 3398.26,34031.79 3367.42,34031.79 2510.87,30234.09 "/>
 <polygon class="fil30" points="2562.28,30234.09 3418.83,34031.79 3387.98,34031.79 2531.43,30234.09 "/>
 <polygon class="fil30" points="2582.84,30234.09 3439.39,34031.79 3408.55,34031.79 2552,30234.09 "/>
 <polygon class="fil31" points="2603.4,30234.09 3459.95,34031.79 3429.1,34031.79 2572.54,30234.09 "/>
 <polygon class="fil31" points="2623.95,30234.09 3480.5,34031.79 3449.67,34031.79 2593.12,30234.09 "/>
 <polygon class="fil31" points="2644.52,30234.09 3501.07,34031.79 3470.22,34031.79 2613.67,30234.09 "/>
 <polygon class="fil31" points="2665.07,30234.09 3521.63,34031.79 3490.79,34031.79 2634.24,30234.09 "/>
 <polygon class="fil32" points="2685.65,30234.09 3542.2,34031.79 3511.35,34031.79 2654.8,30234.09 "/>
 <polygon class="fil32" points="2706.19,30234.09 3562.75,34031.79 3531.91,34031.79 2675.36,30234.09 "/>
 <polygon class="fil32" points="2726.77,30234.09 3583.32,34031.79 3552.48,34031.79 2695.93,30234.09 "/>
 <polygon class="fil32" points="2747.31,30234.09 3603.87,34031.79 3573.03,34031.79 2716.48,30234.09 "/>
 <polygon class="fil33" points="2767.89,30234.09 3624.44,34031.79 3593.6,34031.79 2737.05,30234.09 "/>
 <polygon class="fil33" points="2788.45,30234.09 3645,34031.79 3614.16,34031.79 2757.61,30234.09 "/>
 <polygon class="fil33" points="2809.01,30234.09 3665.56,34031.79 3634.72,34031.79 2778.17,30234.09 "/>
 <polygon class="fil33" points="2829.58,30234.09 3686.12,34031.79 3655.28,34031.79 2798.72,30234.09 "/>
 <polygon class="fil33" points="2850.13,30234.09 3706.69,34031.79 3675.85,34031.79 2819.3,30234.09 "/>
 <polygon class="fil33" points="2870.7,30234.09 3727.25,34031.79 3696.4,34031.79 2839.84,30234.09 "/>
 <polygon class="fil33" points="2891.26,30234.09 3747.81,34031.79 3716.97,34031.79 2860.42,30234.09 "/>
 <polygon class="fil34" points="2911.82,30234.09 3768.37,34031.79 3737.52,34031.79 2880.96,30234.09 "/>
 <polygon class="fil35" points="2932.38,30234.09 3788.93,34031.79 3758.09,34031.79 2901.54,30234.09 "/>
 <polygon class="fil36" points="2952.94,30234.09 3809.49,34031.79 3778.65,34031.79 2922.1,30234.09 "/>
 <polygon class="fil36" points="2973.49,30234.09 3830.05,34031.79 3799.21,34031.79 2942.66,30234.09 "/>
 <polygon class="fil36" points="2994.07,30234.09 3850.62,34031.79 3819.77,34031.79 2963.22,30234.09 "/>
 <polygon class="fil36" points="3014.61,30234.09 3871.17,34031.79 3840.33,34031.79 2983.78,30234.09 "/>
 <polygon class="fil36" points="3035.19,30234.09 3891.74,34031.79 3860.9,34031.79 3004.35,30234.09 "/>
 <polygon class="fil36" points="3055.74,30234.09 3912.29,34031.79 3881.46,34031.79 3024.91,30234.09 "/>
 <polygon class="fil37" points="3076.31,30234.09 3932.86,34031.79 3902.02,34031.79 3045.47,30234.09 "/>
 <polygon class="fil38" points="3096.87,30234.09 3953.42,34031.79 3922.58,34031.79 3066.03,30234.09 "/>
 <polygon class="fil38" points="3117.43,30234.09 3973.98,34031.79 3943.14,34031.79 3086.59,30234.09 "/>
 <polygon class="fil38" points="3137.99,30234.09 3994.54,34031.79 3963.7,34031.79 3107.14,30234.09 "/>
 <polygon class="fil38" points="3158.55,30234.09 4015.1,34031.79 3984.26,34031.79 3127.72,30234.09 "/>
 <polygon class="fil38" points="3179.12,30234.09 4035.67,34031.79 4004.82,34031.79 3148.27,30234.09 "/>
 <polygon class="fil38" points="3199.68,30234.09 4056.23,34031.79 4025.39,34031.79 3168.84,30234.09 "/>
 <polygon class="fil39" points="3220.24,30234.09 4076.79,34031.79 4045.94,34031.79 3189.38,30234.09 "/>
 <polygon class="fil39" points="3240.8,30234.09 4097.35,34031.79 4066.51,34031.79 3209.96,30234.09 "/>
 <polygon class="fil40" points="3261.36,30234.09 4117.91,34031.79 4087.07,34031.79 3230.52,30234.09 "/>
 <polygon class="fil40" points="3281.91,30234.09 4138.47,34031.79 4107.63,34031.79 3251.08,30234.09 "/>
 <polygon class="fil40" points="3302.49,30234.09 4159.03,34031.79 4128.19,34031.79 3271.64,30234.09 "/>
 <polygon class="fil40" points="3323.04,30234.09 4179.59,34031.79 4148.75,34031.79 3292.2,30234.09 "/>
 <polygon class="fil40" points="3343.61,30234.09 4200.16,34031.79 4169.32,34031.79 3312.77,30234.09 "/>
 <polygon class="fil40" points="3364.17,30234.09 4220.71,34031.79 4189.88,34031.79 3333.33,30234.09 "/>
 <polygon class="fil40" points="3384.73,30234.09 4241.28,34031.79 4210.44,34031.79 3353.89,30234.09 "/>
 <polygon class="fil40" points="3405.29,30234.09 4261.84,34031.79 4231,34031.79 3374.45,30234.09 "/>
 <polygon class="fil40" points="3425.85,30234.09 4282.4,34031.79 4251.56,34031.79 3395.01,30234.09 "/>
 <polygon class="fil40" points="3446.42,30234.09 4302.97,34031.79 4272.13,34031.79 3415.57,30234.09 "/>
 <polygon class="fil40" points="3466.98,30234.09 4323.53,34031.79 4292.69,34031.79 3436.14,30234.09 "/>
 <polygon class="fil40" points="3487.54,30234.09 4344.09,34031.79 4313.24,34031.79 3456.68,30234.09 "/>
 <polygon class="fil41" points="3508.1,30234.09 4364.65,34031.79 4333.81,34031.79 3477.26,30234.09 "/>
 <polygon class="fil41" points="3528.66,30234.09 4385.21,34031.79 4354.36,34031.79 3497.81,30234.09 "/>
 <polygon class="fil41" points="3549.22,30234.09 4405.78,34031.79 4374.93,34031.79 3518.38,30234.09 "/>
 <polygon class="fil41" points="3569.79,30234.09 4426.33,34031.79 4395.48,34031.79 3538.94,30234.09 "/>
 <polygon class="fil42" points="3590.34,30234.09 4446.9,34031.79 4416.05,34031.79 3559.5,30234.09 "/>
 <polygon class="fil42" points="3610.91,30234.09 4467.46,34031.79 4436.61,34031.79 3580.06,30234.09 "/>
 <polygon class="fil42" points="3631.45,30234.09 4488.01,34031.79 4457.17,34031.79 3600.62,30234.09 "/>
 <polygon class="fil42" points="3652.03,30234.09 4508.58,34031.79 4477.74,34031.79 3621.19,30234.09 "/>
 <polygon class="fil42" points="3672.59,30234.09 4529.14,34031.79 4498.3,34031.79 3641.75,30234.09 "/>
 <polygon class="fil42" points="3693.15,30234.09 4549.7,34031.79 4518.86,34031.79 3662.31,30234.09 "/>
 <polygon class="fil42" points="3713.71,30234.09 4570.25,34031.79 4539.42,34031.79 3682.87,30234.09 "/>
 <polygon class="fil42" points="3734.27,30234.09 4590.82,34031.79 4559.98,34031.79 3703.43,30234.09 "/>
 <polygon class="fil43" points="3754.84,30234.09 4611.39,34031.79 4580.55,34031.79 3723.99,30234.09 "/>
 <polygon class="fil44" points="3775.4,30234.09 4631.95,34031.79 4601.1,34031.79 3744.56,30234.09 "/>
 <polygon class="fil44" points="3795.96,30234.09 4652.51,34031.79 4621.66,34031.79 3765.11,30234.09 "/>
 <polygon class="fil44" points="3816.52,30234.09 4673.07,34031.79 4642.23,34031.79 3785.68,30234.09 "/>
 <polygon class="fil44" points="3837.08,30234.09 4693.63,34031.79 4662.78,34031.79 3806.22,30234.09 "/>
 <polygon class="fil44" points="3857.64,30234.09 4714.2,34031.79 4683.35,34031.79 3826.8,30234.09 "/>
 <polygon class="fil44" points="3878.21,30234.09 4734.76,34031.79 4703.91,34031.79 3847.36,30234.09 "/>
 <polygon class="fil45" points="3898.76,30234.09 4755.32,34031.79 4724.47,34031.79 3867.92,30234.09 "/>
 <polygon class="fil45" points="3919.33,30234.09 4775.87,34031.79 4745.04,34031.79 3888.49,30234.09 "/>
 <polygon class="fil45" points="3939.88,30234.09 4796.43,34031.79 4765.6,34031.79 3909.05,30234.09 "/>
 <polygon class="fil45" points="3960.45,30234.09 4817,34031.79 4786.16,34031.79 3929.61,30234.09 "/>
 <polygon class="fil45" points="3981.01,30234.09 4837.56,34031.79 4806.72,34031.79 3950.17,30234.09 "/>
 <polygon class="fil45" points="4001.57,30234.09 4858.12,34031.79 4827.28,34031.79 3970.73,30234.09 "/>
 <polygon class="fil45" points="4022.13,30234.09 4878.68,34031.79 4847.85,34031.79 3991.29,30234.09 "/>
 <polygon class="fil46" points="4042.69,30234.09 4899.24,34031.79 4868.4,34031.79 4011.86,30234.09 "/>
 <polygon class="fil47" points="4063.26,30234.09 4919.81,34031.79 4888.97,34031.79 4032.41,30234.09 "/>
 <polygon class="fil47" points="4083.82,30234.09 4940.37,34031.79 4909.53,34031.79 4052.98,30234.09 "/>
 <polygon class="fil47" points="4104.38,30234.09 4960.93,34031.79 4930.09,34031.79 4073.53,30234.09 "/>
 <polygon class="fil47" points="4124.94,30234.09 4981.49,34031.79 4950.65,34031.79 4094.1,30234.09 "/>
 <polygon class="fil47" points="4145.5,30234.09 5002.05,34031.79 4971.21,34031.79 4114.65,30234.09 "/>
 <polygon class="fil47" points="4166.06,30234.09 5022.62,34031.79 4991.77,34031.79 4135.22,30234.09 "/>
 <polygon class="fil47" points="4186.63,30234.09 5043.17,34031.79 5012.33,34031.79 4155.78,30234.09 "/>
 <polygon class="fil47" points="4207.18,30234.09 5063.74,34031.79 5032.89,34031.79 4176.34,30234.09 "/>
 <polygon class="fil48" points="4227.75,30234.09 5084.3,34031.79 5053.45,34031.79 4196.9,30234.09 "/>
 <polygon class="fil48" points="4248.3,30234.09 5104.86,34031.79 5074.02,34031.79 4217.47,30234.09 "/>
 <polygon class="fil48" points="4268.87,30234.09 5125.42,34031.79 5094.58,34031.79 4238.03,30234.09 "/>
 <polygon class="fil48" points="4289.43,30234.09 5145.98,34031.79 5115.14,34031.79 4258.59,30234.09 "/>
 <polygon class="fil48" points="4309.99,30234.09 5166.54,34031.79 5135.7,34031.79 4279.15,30234.09 "/>
 <polygon class="fil49" points="4330.55,30234.09 5187.1,34031.79 5156.27,34031.79 4299.71,30234.09 "/>
 <polygon class="fil49" points="4351.11,30234.09 5207.66,34031.79 5176.82,34031.79 4320.28,30234.09 "/>
 <polygon class="fil49" points="4371.67,30234.09 5228.22,34031.79 5197.39,34031.79 4340.83,30234.09 "/>
 <polygon class="fil50" points="4392.24,30234.09 5248.79,34031.79 5217.94,34031.79 4361.4,30234.09 "/>
 <polygon class="fil50" points="4412.8,30234.09 5269.35,34031.79 5238.51,34031.79 4381.95,30234.09 "/>
 <polygon class="fil50" points="4433.36,30234.09 5289.92,34031.79 5259.07,34031.79 4402.52,30234.09 "/>
 <polygon class="fil50" points="4453.93,30234.09 5310.47,34031.79 5279.63,34031.79 4423.07,30234.09 "/>
 <polygon class="fil50" points="4474.48,30234.09 5331.04,34031.79 5300.19,34031.79 4443.64,30234.09 "/>
 <polygon class="fil50" points="4495.05,30234.09 5351.59,34031.79 5320.75,34031.79 4464.2,30234.09 "/>
 <polygon class="fil50" points="4515.6,30234.09 5372.16,34031.79 5341.31,34031.79 4484.76,30234.09 "/>
 <polygon class="fil50" points="4536.17,30234.09 5392.72,34031.79 5361.87,34031.79 4505.33,30234.09 "/>
 <polygon class="fil50" points="4556.72,30234.09 5413.28,34031.79 5382.44,34031.79 4525.89,30234.09 "/>
 <polygon class="fil50" points="4577.29,30234.09 5433.84,34031.79 5403,34031.79 4546.45,30234.09 "/>
 <polygon class="fil51" points="4597.84,30234.09 5454.4,34031.79 5423.56,34031.79 4567.01,30234.09 "/>
 <polygon class="fil51" points="4618.41,30234.09 5474.96,34031.79 5444.12,34031.79 4587.57,30234.09 "/>
 <polygon class="fil51" points="4638.97,30234.09 5495.52,34031.79 5464.69,34031.79 4608.13,30234.09 "/>
 <polygon class="fil51" points="4659.54,30234.09 5516.09,34031.79 5485.24,34031.79 4628.7,30234.09 "/>
 <polygon class="fil51" points="4680.1,30234.09 5536.64,34031.79 5505.81,34031.79 4649.25,30234.09 "/>
 <polygon class="fil51" points="4700.66,30234.09 5557.21,34031.79 5526.37,34031.79 4669.82,30234.09 "/>
 <polygon class="fil52" points="4721.22,30234.09 5577.77,34031.79 5546.93,34031.79 4690.37,30234.09 "/>
 <polygon class="fil52" points="4741.78,30234.09 5598.34,34031.79 5567.49,34031.79 4710.94,30234.09 "/>
 <polygon class="fil52" points="4762.35,30234.09 5618.89,34031.79 5588.05,34031.79 4731.49,30234.09 "/>
 <polygon class="fil52" points="4782.9,30234.09 5639.46,34031.79 5608.61,34031.79 4752.06,30234.09 "/>
 <polygon class="fil52" points="4803.47,30234.09 5660.01,34031.79 5629.17,34031.79 4772.62,30234.09 "/>
 <polygon class="fil52" points="4824.02,30234.09 5680.58,34031.79 5649.73,34031.79 4793.18,30234.09 "/>
 <polygon class="fil52" points="4844.59,30234.09 5701.14,34031.79 5670.29,34031.79 4813.74,30234.09 "/>
 <polygon class="fil53" points="4865.14,30234.09 5721.7,34031.79 5690.86,34031.79 4834.31,30234.09 "/>
 <polygon class="fil54" points="4885.71,30234.09 5742.26,34031.79 5711.41,34031.79 4854.87,30234.09 "/>
 <polygon class="fil54" points="4906.26,30234.09 5762.82,34031.79 5731.98,34031.79 4875.43,30234.09 "/>
 <polygon class="fil54" points="4926.83,30234.09 5783.38,34031.79 5752.54,34031.79 4895.99,30234.09 "/>
 <polygon class="fil54" points="4947.39,30234.09 5803.94,34031.79 5773.11,34031.79 4916.55,30234.09 "/>
 <polygon class="fil54" points="4967.96,30234.09 5824.51,34031.79 5793.66,34031.79 4937.12,30234.09 "/>
 <polygon class="fil54" points="4988.51,30234.09 5845.06,34031.79 5814.23,34031.79 4957.67,30234.09 "/>
 <polygon class="fil54" points="5009.08,30234.09 5865.63,34031.79 5834.79,34031.79 4978.24,30234.09 "/>
 <polygon class="fil54" points="5029.64,30234.09 5886.18,34031.79 5855.35,34031.79 4998.79,30234.09 "/>
 <polygon class="fil55" points="5050.2,30234.09 5906.76,34031.79 5875.91,34031.79 5019.36,30234.09 "/>
 <polygon class="fil55" points="5070.77,30234.09 5927.31,34031.79 5896.47,34031.79 5039.91,30234.09 "/>
 <polygon class="fil54" points="5091.32,30234.09 5947.88,34031.79 5917.03,34031.79 5060.48,30234.09 "/>
 <polygon class="fil54" points="5111.89,30234.09 5968.43,34031.79 5937.59,34031.79 5081.04,30234.09 "/>
 <polygon class="fil54" points="5132.44,30234.09 5989,34031.79 5958.16,34031.79 5101.61,30234.09 "/>
 <polygon class="fil55" points="5153.01,30234.09 6009.56,34031.79 5978.71,34031.79 5122.16,30234.09 "/>
 <polygon class="fil55" points="5173.56,30234.09 6030.12,34031.79 5999.28,34031.79 5142.73,30234.09 "/>
 <polygon class="fil55" points="5194.13,30234.09 6050.68,34031.79 6019.83,34031.79 5163.28,30234.09 "/>
 <polygon class="fil56" points="5214.68,30234.09 6071.24,34031.79 6040.4,34031.79 5183.85,30234.09 "/>
 <polygon class="fil56" points="5235.25,30234.09 6091.8,34031.79 6060.96,34031.79 5204.42,30234.09 "/>
 <polygon class="fil57" points="5255.81,30234.09 6112.36,34031.79 6081.53,34031.79 5224.97,30234.09 "/>
 <polygon class="fil57" points="5276.38,30234.09 6132.93,34031.79 6102.08,34031.79 5245.54,30234.09 "/>
 <polygon class="fil57" points="5296.93,30234.09 6153.48,34031.79 6122.65,34031.79 5266.09,30234.09 "/>
 <polygon class="fil57" points="5317.5,30234.09 6174.05,34031.79 6143.21,34031.79 5286.66,30234.09 "/>
 <polygon class="fil57" points="5338.05,30234.09 6194.6,34031.79 6163.77,34031.79 5307.21,30234.09 "/>
 <polygon class="fil57" points="5358.62,30234.09 6215.17,34031.79 6184.33,34031.79 5327.78,30234.09 "/>
 <polygon class="fil58" points="5379.19,30234.09 6235.73,34031.79 6204.89,34031.79 5348.33,30234.09 "/>
 <polygon class="fil58" points="5399.74,30234.09 6256.3,34031.79 6225.45,34031.79 5368.9,30234.09 "/>
 <polygon class="fil58" points="5420.31,30234.09 6276.85,34031.79 6246.01,34031.79 5389.46,30234.09 "/>
 <polygon class="fil58" points="5440.86,30234.09 6297.42,34031.79 6266.58,34031.79 5410.03,30234.09 "/>
 <polygon class="fil58" points="5461.43,30234.09 6317.98,34031.79 6287.13,34031.79 5430.58,30234.09 "/>
 <polygon class="fil58" points="5481.98,30234.09 6338.54,34031.79 6307.7,34031.79 5451.15,30234.09 "/>
 <polygon class="fil58" points="5502.55,30234.09 6359.1,34031.79 6328.25,34031.79 5471.71,30234.09 "/>
 <polygon class="fil58" points="5523.1,30234.09 6379.66,34031.79 6348.83,34031.79 5492.27,30234.09 "/>
 <polygon class="fil59" points="5543.68,30234.09 6400.23,34031.79 6369.38,34031.79 5512.83,30234.09 "/>
 <polygon class="fil59" points="5564.23,30234.09 6420.78,34031.79 6389.95,34031.79 5533.39,30234.09 "/>
 <polygon class="fil59" points="5584.8,30234.09 6441.35,34031.79 6410.5,34031.79 5553.96,30234.09 "/>
 <polygon class="fil59" points="5605.35,30234.09 6461.9,34031.79 6431.07,34031.79 5574.51,30234.09 "/>
 <polygon class="fil59" points="5625.92,30234.09 6482.47,34031.79 6451.63,34031.79 5595.08,30234.09 "/>
 <polygon class="fil59" points="5646.48,30234.09 6503.03,34031.79 6472.19,34031.79 5615.63,30234.09 "/>
 <polygon class="fil59" points="5667.04,30234.09 6523.6,34031.79 6492.75,34031.79 5636.2,30234.09 "/>
 <polygon class="fil60" points="5687.6,30234.09 6544.15,34031.79 6513.31,34031.79 5656.75,30234.09 "/>
 <polygon class="fil61" points="5708.16,30234.09 6564.72,34031.79 6533.87,34031.79 5677.32,30234.09 "/>
 <polygon class="fil62" points="5728.73,30234.09 6585.28,34031.79 6554.43,34031.79 5697.88,30234.09 "/>
 <polygon class="fil62" points="5749.28,30234.09 6605.84,34031.79 6575,34031.79 5718.45,30234.09 "/>
 <polygon class="fil62" points="5769.85,30234.09 6626.4,34031.79 6595.55,34031.79 5739,30234.09 "/>
 <polygon class="fil62" points="5790.4,30234.09 6646.96,34031.79 6616.12,34031.79 5759.57,30234.09 "/>
 <polygon class="fil62" points="5810.97,30234.09 6667.52,34031.79 6636.67,34031.79 5780.12,30234.09 "/>
 <polygon class="fil62" points="5831.53,30234.09 6688.08,34031.79 6657.24,34031.79 5800.69,30234.09 "/>
 <polygon class="fil62" points="5852.1,30234.09 6708.65,34031.79 6677.8,34031.79 5821.25,30234.09 "/>
 <polygon class="fil63" points="5872.65,30234.09 6729.2,34031.79 6698.37,34031.79 5841.81,30234.09 "/>
 <polygon class="fil63" points="5893.22,30234.09 6749.77,34031.79 6718.92,34031.79 5862.38,30234.09 "/>
 <polygon class="fil63" points="5913.77,30234.09 6770.32,34031.79 6739.49,34031.79 5882.93,30234.09 "/>
 <polygon class="fil63" points="5934.34,30234.09 6790.89,34031.79 6760.05,34031.79 5903.5,30234.09 "/>
 <polygon class="fil63" points="5954.9,30234.09 6811.45,34031.79 6780.61,34031.79 5924.05,30234.09 "/>
 <polygon class="fil64" points="5975.46,30234.09 6832.01,34031.79 6801.17,34031.79 5944.62,30234.09 "/>
 <polygon class="fil64" points="5996.02,30234.09 6852.57,34031.79 6821.73,34031.79 5965.17,30234.09 "/>
 <polygon class="fil64" points="6016.58,30234.09 6873.14,34031.79 6842.29,34031.79 5985.74,30234.09 "/>
 <polygon class="fil65" points="6037.15,30234.09 6893.7,34031.79 6862.85,34031.79 6006.3,30234.09 "/>
 <polygon class="fil65" points="6057.7,30234.09 6914.26,34031.79 6883.42,34031.79 6026.87,30234.09 "/>
 <polygon class="fil65" points="6078.27,30234.09 6934.82,34031.79 6903.97,34031.79 6047.42,30234.09 "/>
 <polygon class="fil65" points="6098.82,30234.09 6955.38,34031.79 6924.54,34031.79 6067.99,30234.09 "/>
 <polygon class="fil65" points="6119.39,30234.09 6975.94,34031.79 6945.09,34031.79 6088.55,30234.09 "/>
 <polygon class="fil65" points="6139.94,30234.09 6996.5,34031.79 6965.67,34031.79 6109.11,30234.09 "/>
 <polygon class="fil65" points="6160.52,30234.09 7017.07,34031.79 6986.22,34031.79 6129.67,30234.09 "/>
 <polygon class="fil66" points="6181.07,30234.09 7037.62,34031.79 7006.79,34031.79 6150.23,30234.09 "/>
 <polygon class="fil66" points="6201.64,30234.09 7058.19,34031.79 7027.35,34031.79 6170.8,30234.09 "/>
 <polygon class="fil66" points="6222.19,30234.09 7078.74,34031.79 7047.91,34031.79 6191.35,30234.09 "/>
 <polygon class="fil67" points="6242.76,30234.09 7099.31,34031.79 7068.47,34031.79 6211.92,30234.09 "/>
 <polygon class="fil67" points="6263.32,30234.09 7119.87,34031.79 7089.03,34031.79 6232.47,30234.09 "/>
 <polygon class="fil67" points="6283.88,30234.09 7140.44,34031.79 7109.59,34031.79 6253.04,30234.09 "/>
 <polygon class="fil67" points="6304.44,30234.09 7160.99,34031.79 7130.15,34031.79 6273.6,30234.09 "/>
 <polygon class="fil67" points="6325,30234.09 7181.56,34031.79 7150.72,34031.79 6294.17,30234.09 "/>
 <polygon class="fil67" points="6345.57,30234.09 7202.12,34031.79 7171.27,34031.79 6314.71,30234.09 "/>
 <polygon class="fil67" points="6366.12,30234.09 7222.68,34031.79 7191.84,34031.79 6335.29,30234.09 "/>
 <polygon class="fil67" points="6386.69,30234.09 7243.24,34031.79 7212.39,34031.79 6355.84,30234.09 "/>
 <polygon class="fil67" points="6407.24,30234.09 7263.8,34031.79 7232.96,34031.79 6376.41,30234.09 "/>
 <polygon class="fil67" points="6427.81,30234.09 7284.36,34031.79 7253.51,34031.79 6396.97,30234.09 "/>
 <polygon class="fil67" points="6448.37,30234.09 7304.92,34031.79 7274.08,34031.79 6417.53,30234.09 "/>
 <polygon class="fil67" points="6468.94,30234.09 7325.49,34031.79 7294.64,34031.79 6438.09,30234.09 "/>
 <polygon class="fil67" points="6489.49,30234.09 7346.04,34031.79 7315.21,34031.79 6458.65,30234.09 "/>
 <polygon class="fil68" points="6510.06,30234.09 7366.61,34031.79 7335.77,34031.79 6479.22,30234.09 "/>
 <polygon class="fil68" points="6530.61,30234.09 7387.16,34031.79 7356.33,34031.79 6499.78,30234.09 "/>
 <polygon class="fil68" points="6551.18,30234.09 7407.73,34031.79 7376.89,34031.79 6520.34,30234.09 "/>
 <polygon class="fil68" points="6571.74,30234.09 7428.28,34031.79 7397.45,34031.79 6540.89,30234.09 "/>
 <polygon class="fil68" points="6592.3,30234.09 7448.85,34031.79 7418.01,34031.79 6561.46,30234.09 "/>
 <polygon class="fil68" points="6612.87,30234.09 7469.42,34031.79 7438.58,34031.79 6582.02,30234.09 "/>
 <polygon class="fil68" points="6633.42,30234.09 7489.98,34031.79 7459.14,34031.79 6602.59,30234.09 "/>
 <polygon class="fil69" points="6653.99,30234.09 7510.54,34031.79 7479.69,34031.79 6623.14,30234.09 "/>
 <polygon class="fil68" points="6674.54,30234.09 7531.1,34031.79 7500.26,34031.79 6643.71,30234.09 "/>
 <polygon class="fil68" points="6695.11,30234.09 7551.66,34031.79 7520.81,34031.79 6664.26,30234.09 "/>
 <polygon class="fil68" points="6715.67,30234.09 7572.22,34031.79 7541.38,34031.79 6684.83,30234.09 "/>
 <polygon class="fil68" points="6736.24,30234.09 7592.79,34031.79 7561.94,34031.79 6705.39,30234.09 "/>
 <polygon class="fil68" points="6756.79,30234.09 7613.35,34031.79 7582.51,34031.79 6725.95,30234.09 "/>
 <polygon class="fil70" points="6777.36,30234.09 7633.91,34031.79 7603.05,34031.79 6746.51,30234.09 "/>
 <polygon class="fil71" points="6797.91,30234.09 7654.46,34031.79 7623.62,34031.79 6767.07,30234.09 "/>
 <polygon class="fil71" points="6818.48,30234.09 7675.03,34031.79 7644.19,34031.79 6787.64,30234.09 "/>
 <polygon class="fil72" points="6839.04,30234.09 7695.58,34031.79 7664.75,34031.79 6808.2,30234.09 "/>
 <polygon class="fil72" points="6859.6,30234.09 7716.15,34031.79 7685.31,34031.79 6828.76,30234.09 "/>
 <polygon class="fil72" points="6880.16,30234.09 7736.7,34031.79 7705.86,34031.79 6849.31,30234.09 "/>
 <polygon class="fil72" points="6900.72,30234.09 7757.27,34031.79 7726.42,34031.79 6869.88,30234.09 "/>
 <polygon class="fil72" points="6921.29,30234.09 7777.83,34031.79 7746.99,34031.79 6890.44,30234.09 "/>
 <polygon class="fil72" points="6941.85,30234.09 7798.39,34031.79 7767.55,34031.79 6911.01,30234.09 "/>
 <polygon class="fil72" points="6962.41,30234.09 7818.95,34031.79 7788.1,34031.79 6931.55,30234.09 "/>
 <polygon class="fil72" points="6982.97,30234.09 7839.51,34031.79 7808.67,34031.79 6952.13,30234.09 "/>
 <polygon class="fil72" points="7003.53,30234.09 7860.07,34031.79 7829.22,34031.79 6972.67,30234.09 "/>
 <polygon class="fil72" points="7024.08,30234.09 7880.64,34031.79 7849.8,34031.79 6993.25,30234.09 "/>
 <polygon class="fil72" points="7044.65,30234.09 7901.2,34031.79 7870.35,34031.79 7013.81,30234.09 "/>
 <polygon class="fil73" points="7065.21,30234.09 7921.76,34031.79 7890.92,34031.79 7034.37,30234.09 "/>
 <polygon class="fil73" points="7085.78,30234.09 7942.32,34031.79 7911.47,34031.79 7054.93,30234.09 "/>
 <polygon class="fil73" points="7106.32,30234.09 7962.87,34031.79 7932.04,34031.79 7075.49,30234.09 "/>
 <polygon class="fil73" points="7126.9,30234.09 7983.45,34031.79 7952.6,34031.79 7096.06,30234.09 "/>
 <polygon class="fil73" points="7147.46,30234.09 8004,34031.79 7973.16,34031.79 7116.62,30234.09 "/>
 <polygon class="fil74" points="7168.02,30234.09 8024.57,34031.79 7993.72,34031.79 7137.18,30234.09 "/>
 <polygon class="fil74" points="7188.58,30234.09 8045.12,34031.79 8014.29,34031.79 7157.74,30234.09 "/>
 <polygon class="fil74" points="7209.14,30234.09 8065.69,34031.79 8034.85,34031.79 7178.3,30234.09 "/>
 <polygon class="fil74" points="7229.71,30234.09 8086.25,34031.79 8055.41,34031.79 7198.85,30234.09 "/>
 <polygon class="fil74" points="7250.27,30234.09 8106.81,34031.79 8075.97,34031.79 7219.42,30234.09 "/>
 <polygon class="fil74" points="7270.83,30234.09 8127.37,34031.79 8096.53,34031.79 7239.98,30234.09 "/>
 <polygon class="fil74" points="7291.39,30234.09 8147.93,34031.79 8117.1,34031.79 7260.55,30234.09 "/>
 <polygon class="fil74" points="7311.95,30234.09 8168.49,34031.79 8137.65,34031.79 7281.11,30234.09 "/>
 <polygon class="fil75" points="7332.5,30234.09 8189.06,34031.79 8158.22,34031.79 7301.67,30234.09 "/>
 <polygon class="fil75" points="7353.08,30234.09 8209.62,34031.79 8178.77,34031.79 7322.23,30234.09 "/>
 <polygon class="fil75" points="7373.62,30234.09 8230.18,34031.79 8199.34,34031.79 7342.79,30234.09 "/>
 <polygon class="fil75" points="7394.19,30234.09 8250.74,34031.79 8219.9,34031.79 7363.35,30234.09 "/>
 <polygon class="fil75" points="7414.75,30234.09 8271.3,34031.79 8240.46,34031.79 7383.92,30234.09 "/>
 <polygon class="fil76" points="7435.32,30234.09 8291.87,34031.79 8261.02,34031.79 7404.48,30234.09 "/>
 <polygon class="fil76" points="7455.88,30234.09 8312.42,34031.79 8281.58,34031.79 7425.04,30234.09 "/>
 <polygon class="fil76" points="7476.44,30234.09 8332.99,34031.79 8302.14,34031.79 7445.6,30234.09 "/>
 <polygon class="fil77" points="7497,30234.09 8353.54,34031.79 8322.71,34031.79 7466.16,30234.09 "/>
 <polygon class="fil77" points="7517.56,30234.09 8374.11,34031.79 8343.27,34031.79 7486.72,30234.09 "/>
 <polygon class="fil77" points="7538.13,30234.09 8394.67,34031.79 8363.83,34031.79 7507.28,30234.09 "/>
 <polygon class="fil77" points="7558.69,30234.09 8415.23,34031.79 8384.39,34031.79 7527.85,30234.09 "/>
 <polygon class="fil78" points="7579.25,30234.09 8435.79,34031.79 8404.95,34031.79 7548.39,30234.09 "/>
 <polygon class="fil77" points="7599.81,30234.09 8456.35,34031.79 8425.52,34031.79 7568.97,30234.09 "/>
 <polygon class="fil77" points="7620.37,30234.09 8476.92,34031.79 8446.07,34031.79 7589.53,30234.09 "/>
 <polygon class="fil77" points="7640.93,30234.09 8497.48,34031.79 8466.64,34031.79 7610.09,30234.09 "/>
 <polygon class="fil79" points="7661.49,30234.09 8518.04,34031.79 8487.19,34031.79 7630.65,30234.09 "/>
 <polygon class="fil79" points="7682.05,30234.09 8538.6,34031.79 8507.76,34031.79 7651.21,30234.09 "/>
 <polygon class="fil79" points="7702.62,30234.09 8559.16,34031.79 8528.32,34031.79 7671.77,30234.09 "/>
 <polygon class="fil79" points="7723.17,30234.09 8579.72,34031.79 8548.88,34031.79 7692.34,30234.09 "/>
 <polygon class="fil79" points="7743.74,30234.09 8600.29,34031.79 8569.44,34031.79 7712.9,30234.09 "/>
 <polygon class="fil79" points="7764.3,30234.09 8620.84,34031.79 8590,34031.79 7733.46,30234.09 "/>
 <polygon class="fil79" points="7784.86,30234.09 8641.41,34031.79 8610.56,34031.79 7754.02,30234.09 "/>
 <polygon class="fil79" points="7805.42,30234.09 8661.97,34031.79 8631.13,34031.79 7774.58,30234.09 "/>
 <polygon class="fil80" points="7825.99,30234.09 8682.53,34031.79 8651.69,34031.79 7795.15,30234.09 "/>
 <polygon class="fil80" points="7846.55,30234.09 8703.09,34031.79 8672.25,34031.79 7815.7,30234.09 "/>
 <polygon class="fil80" points="7867.11,30234.09 8723.65,34031.79 8692.81,34031.79 7836.26,30234.09 "/>
 <polygon class="fil81" points="7887.67,30234.09 8744.21,34031.79 8713.37,34031.79 7856.82,30234.09 "/>
 <polygon class="fil81" points="7908.23,30234.09 8764.78,34031.79 8733.94,34031.79 7877.39,30234.09 "/>
 <polygon class="fil81" points="7928.79,30234.09 8785.34,34031.79 8754.49,34031.79 7897.95,30234.09 "/>
 <polygon class="fil81" points="7949.35,30234.09 8805.9,34031.79 8775.06,34031.79 7918.51,30234.09 "/>
 <polygon class="fil81" points="7969.92,30234.09 8826.46,34031.79 8795.61,34031.79 7939.07,30234.09 "/>
 <polygon class="fil82" points="7990.46,30234.09 8847.02,34031.79 8816.18,34031.79 7959.63,30234.09 "/>
 <polygon class="fil82" points="8011.04,30234.09 8867.58,34031.79 8836.74,34031.79 7980.2,30234.09 "/>
 <polygon class="fil82" points="8031.6,30234.09 8888.14,34031.79 8857.3,34031.79 8000.76,30234.09 "/>
 <polygon class="fil83" points="8052.16,30234.09 8908.71,34031.79 8877.86,34031.79 8021.32,30234.09 "/>
 <polygon class="fil83" points="8072.72,30234.09 8929.26,34031.79 8898.42,34031.79 8041.88,30234.09 "/>
 <polygon class="fil83" points="8093.28,30234.09 8949.83,34031.79 8918.98,34031.79 8062.44,30234.09 "/>
 <polygon class="fil83" points="8113.84,30234.09 8970.39,34031.79 8939.55,34031.79 8083,30234.09 "/>
 <polygon class="fil83" points="8134.41,30234.09 8990.95,34031.79 8960.11,34031.79 8103.56,30234.09 "/>
 <polygon class="fil84" points="8154.97,30234.09 9011.51,34031.79 8980.67,34031.79 8124.12,30234.09 "/>
 <polygon class="fil84" points="8175.53,30234.09 9032.07,34031.79 9001.23,34031.79 8144.69,30234.09 "/>
 <polygon class="fil84" points="8196.09,30234.09 9052.63,34031.79 9021.79,34031.79 8165.23,30234.09 "/>
 <polygon class="fil84" points="8216.65,30234.09 9073.2,34031.79 9042.36,34031.79 8185.81,30234.09 "/>
 <polygon class="fil84" points="8237.21,30234.09 9093.76,34031.79 9062.91,34031.79 8206.37,30234.09 "/>
 <polygon class="fil84" points="8257.77,30234.09 9114.32,34031.79 9083.48,34031.79 8226.93,30234.09 "/>
 <polygon class="fil84" points="8278.33,30234.09 9134.88,34031.79 9104.03,34031.79 8247.49,30234.09 "/>
 <polygon class="fil84" points="8298.89,30234.09 9155.44,34031.79 9124.6,34031.79 8268.05,30234.09 "/>
 <polygon class="fil85" points="8319.46,30234.09 9176.01,34031.79 9145.16,34031.79 8288.61,30234.09 "/>
 <polygon class="fil85" points="8340.02,30234.09 9196.56,34031.79 9165.72,34031.79 8309.18,30234.09 "/>
 <polygon class="fil85" points="8360.58,30234.09 9217.13,34031.79 9186.28,34031.79 8329.74,30234.09 "/>
 <polygon class="fil85" points="8381.14,30234.09 9237.68,34031.79 9206.85,34031.79 8350.3,30234.09 "/>
 <polygon class="fil85" points="8401.7,30234.09 9258.25,34031.79 9227.41,34031.79 8370.86,30234.09 "/>
 <polygon class="fil86" points="8422.26,30234.09 9278.8,34031.79 9247.97,34031.79 8391.42,30234.09 "/>
 <polygon class="fil86" points="8442.83,30234.09 9299.37,34031.79 9268.53,34031.79 8411.98,30234.09 "/>
 <polygon class="fil86" points="8463.38,30234.09 9319.93,34031.79 9289.09,34031.79 8432.54,30234.09 "/>
 <polygon class="fil87" points="8483.95,30234.09 9340.49,34031.79 9309.65,34031.79 8453.11,30234.09 "/>
 <polygon class="fil87" points="8504.51,30234.09 9361.05,34031.79 9330.21,34031.79 8473.66,30234.09 "/>
 <polygon class="fil87" points="8525.06,30234.09 9381.62,34031.79 9350.78,34031.79 8494.23,30234.09 "/>
 <polygon class="fil87" points="8545.63,30234.09 9402.17,34031.79 9371.33,34031.79 8514.79,30234.09 "/>
 <polygon class="fil87" points="8566.18,30234.09 9422.74,34031.79 9391.89,34031.79 8535.34,30234.09 "/>
 <polygon class="fil87" points="8586.75,30234.09 9443.3,34031.79 9412.45,34031.79 8555.9,30234.09 "/>
 <polygon class="fil87" points="8607.3,30234.09 9463.86,34031.79 9433.02,34031.79 8576.47,30234.09 "/>
 <polygon class="fil88" points="8627.87,30234.09 9484.42,34031.79 9453.58,34031.79 8597.03,30234.09 "/>
 <polygon class="fil88" points="8648.43,30234.09 9504.98,34031.79 9474.14,34031.79 8617.59,30234.09 "/>
 <polygon class="fil88" points="8668.99,30234.09 9525.54,34031.79 9494.7,34031.79 8638.15,30234.09 "/>
 <polygon class="fil88" points="8689.55,30234.09 9546.1,34031.79 9515.27,34031.79 8658.71,30234.09 "/>
 <polygon class="fil88" points="8710.11,30234.09 9566.66,34031.79 9535.82,34031.79 8679.28,30234.09 "/>
 <polygon class="fil88" points="8730.67,30234.09 9587.22,34031.79 9556.39,34031.79 8699.83,30234.09 "/>
 <polygon class="fil88" points="8751.24,30234.09 9607.79,34031.79 9576.94,34031.79 8720.4,30234.09 "/>
 <polygon class="fil88" points="8771.8,30234.09 9628.35,34031.79 9597.51,34031.79 8740.95,30234.09 "/>
 <polygon class="fil89" points="8792.36,30234.09 9648.91,34031.79 9618.07,34031.79 8761.52,30234.09 "/>
 <polygon class="fil89" points="8812.92,30234.09 9669.47,34031.79 9638.63,34031.79 8782.07,30234.09 "/>
 <polygon class="fil90" points="8833.48,30234.09 9690.04,34031.79 9659.19,34031.79 8802.64,30234.09 "/>
 <polygon class="fil90" points="8854.05,30234.09 9710.59,34031.79 9679.75,34031.79 8823.2,30234.09 "/>
 <polygon class="fil90" points="8874.6,30234.09 9731.16,34031.79 9700.31,34031.79 8843.76,30234.09 "/>
 <polygon class="fil90" points="8895.17,30234.09 9751.72,34031.79 9720.87,34031.79 8864.32,30234.09 "/>
 <polygon class="fil90" points="8915.73,30234.09 9772.28,34031.79 9741.44,34031.79 8884.89,30234.09 "/>
 <polygon class="fil90" points="8936.29,30234.09 9792.84,34031.79 9761.99,34031.79 8905.44,30234.09 "/>
 <polygon class="fil91" points="8956.84,30234.09 9813.4,34031.79 9782.56,34031.79 8926.01,30234.09 "/>
 <polygon class="fil91" points="8977.41,30234.09 9833.96,34031.79 9803.12,34031.79 8946.57,30234.09 "/>
 <polygon class="fil91" points="8997.97,30234.09 9854.52,34031.79 9823.69,34031.79 8967.13,30234.09 "/>
 <polygon class="fil91" points="9018.54,30234.09 9875.09,34031.79 9844.24,34031.79 8987.7,30234.09 "/>
 <polygon class="fil91" points="9039.09,30234.09 9895.64,34031.79 9864.81,34031.79 9008.25,30234.09 "/>
 <polygon class="fil91" points="9059.66,30234.09 9916.21,34031.79 9885.36,34031.79 9028.82,30234.09 "/>
 <polygon class="fil91" points="9080.21,30234.09 9936.76,34031.79 9905.93,34031.79 9049.37,30234.09 "/>
 <polygon class="fil91" points="9100.78,30234.09 9957.34,34031.79 9926.49,34031.79 9069.94,30234.09 "/>
 <polygon class="fil92" points="9121.35,30234.09 9977.89,34031.79 9947.05,34031.79 9090.5,30234.09 "/>
 <polygon class="fil93" points="9141.9,30234.09 9998.46,34031.79 9967.61,34031.79 9111.06,30234.09 "/>
 <polygon class="fil93" points="9162.47,30234.09 10019.01,34031.79 9988.17,34031.79 9131.62,30234.09 "/>
 <polygon class="fil93" points="9183.02,30234.09 10039.58,34031.79 10008.73,34031.79 9152.18,30234.09 "/>
 <polygon class="fil93" points="9203.59,30234.09 10060.14,34031.79 10029.29,34031.79 9172.74,30234.09 "/>
 <polygon class="fil93" points="9224.14,30234.09 10080.7,34031.79 10049.86,34031.79 9193.31,30234.09 "/>
 <polygon class="fil94" points="9244.71,30234.09 10101.26,34031.79 10070.41,34031.79 9213.86,30234.09 "/>
 <polygon class="fil94" points="9265.27,30234.09 10121.82,34031.79 10090.98,34031.79 9234.43,30234.09 "/>
 <polygon class="fil95" points="9285.83,30234.09 10142.38,34031.79 10111.54,34031.79 9254.99,30234.09 "/>
 <polygon class="fil94" points="9306.39,30234.09 10162.94,34031.79 10132.11,34031.79 9275.55,30234.09 "/>
 <polygon class="fil94" points="9326.96,30234.09 10183.51,34031.79 10152.66,34031.79 9296.12,30234.09 "/>
 <polygon class="fil94" points="9347.51,30234.09 10204.06,34031.79 10173.23,34031.79 9316.67,30234.09 "/>
 <polygon class="fil94" points="9368.08,30234.09 10224.63,34031.79 10193.78,34031.79 9337.24,30234.09 "/>
 <polygon class="fil94" points="9388.64,30234.09 10245.18,34031.79 10214.35,34031.79 9357.79,30234.09 "/>
 <polygon class="fil94" points="9409.2,30234.09 10265.76,34031.79 10234.91,34031.79 9378.36,30234.09 "/>
 <polygon class="fil94" points="9429.76,30234.09 10286.31,34031.79 10255.47,34031.79 9398.91,30234.09 "/>
 <polygon class="fil95" points="9450.32,30234.09 10306.88,34031.79 10276.03,34031.79 9419.48,30234.09 "/>
 <polygon class="fil95" points="9470.89,30234.09 10327.43,34031.79 10296.59,34031.79 9440.04,30234.09 "/>
 <polygon class="fil95" points="9491.44,30234.09 10348,34031.79 10317.16,34031.79 9460.61,30234.09 "/>
 <polygon class="fil96" points="9512.01,30234.09 10368.56,34031.79 10337.71,34031.79 9481.16,30234.09 "/>
 <polygon class="fil96" points="9532.57,30234.09 10389.12,34031.79 10358.28,34031.79 9501.73,30234.09 "/>
 <polygon class="fil96" points="9553.13,30234.09 10409.68,34031.79 10378.83,34031.79 9522.28,30234.09 "/>
 <polygon class="fil96" points="9573.68,30234.09 10430.24,34031.79 10399.41,34031.79 9542.85,30234.09 "/>
 <polygon class="fil96" points="9594.25,30234.09 10450.8,34031.79 10419.95,34031.79 9563.41,30234.09 "/>
 <polygon class="fil96" points="9614.81,30234.09 10471.36,34031.79 10440.53,34031.79 9583.97,30234.09 "/>
 <polygon class="fil96" points="9635.38,30234.09 10491.93,34031.79 10461.08,34031.79 9604.54,30234.09 "/>
 <polygon class="fil96" points="9655.93,30234.09 10512.48,34031.79 10481.65,34031.79 9625.09,30234.09 "/>
 <polygon class="fil96" points="9676.5,30234.09 10533.05,34031.79 10502.21,34031.79 9645.66,30234.09 "/>
 <polygon class="fil96" points="9697.05,30234.09 10553.6,34031.79 10522.77,34031.79 9666.21,30234.09 "/>
 <polygon class="fil96" points="9717.62,30234.09 10574.18,34031.79 10543.33,34031.79 9686.78,30234.09 "/>
 <polygon class="fil96" points="9738.18,30234.09 10594.73,34031.79 10563.89,34031.79 9707.34,30234.09 "/>
 <polygon class="fil97" points="9758.74,30234.09 10615.3,34031.79 10584.45,34031.79 9727.9,30234.09 "/>
 <polygon class="fil98" points="9779.31,30234.09 10635.85,34031.79 10605.01,34031.79 9748.46,30234.09 "/>
 <polygon class="fil99" points="9799.86,30234.09 10656.42,34031.79 10625.58,34031.79 9769.03,30234.09 "/>
 <polygon class="fil99" points="9820.43,30234.09 10676.98,34031.79 10646.13,34031.79 9789.58,30234.09 "/>
 <polygon class="fil99" points="9840.98,30234.09 10697.54,34031.79 10666.7,34031.79 9810.15,30234.09 "/>
 <polygon class="fil99" points="9861.55,30234.09 10718.1,34031.79 10687.25,34031.79 9830.7,30234.09 "/>
 <polygon class="fil99" points="9882.11,30234.09 10738.66,34031.79 10707.83,34031.79 9851.27,30234.09 "/>
 <polygon class="fil99" points="9902.67,30234.09 10759.22,34031.79 10728.37,34031.79 9871.83,30234.09 "/>
 <polygon class="fil99" points="9923.23,30234.09 10779.78,34031.79 10748.95,34031.79 9892.39,30234.09 "/>
 <polygon class="fil100" points="9943.8,30234.09 10800.35,34031.79 10769.5,34031.79 9912.96,30234.09 "/>
 <polygon class="fil100" points="9964.35,30234.09 10820.9,34031.79 10790.07,34031.79 9933.51,30234.09 "/>
 <polygon class="fil100" points="9984.92,30234.09 10841.47,34031.79 10810.63,34031.79 9954.08,30234.09 "/>
 <polygon class="fil100" points="10005.48,30234.09 10862.02,34031.79 10831.19,34031.79 9974.64,30234.09 "/>
 <polygon class="fil100" points="10026.04,30234.09 10882.6,34031.79 10851.75,34031.79 9995.2,30234.09 "/>
 <polygon class="fil100" points="10046.6,30234.09 10903.14,34031.79 10872.31,34031.79 10015.75,30234.09 "/>
 <polygon class="fil101" points="10067.16,30234.09 10923.72,34031.79 10892.87,34031.79 10036.32,30234.09 "/>
 <polygon class="fil101" points="10087.73,30234.09 10944.28,34031.79 10913.43,34031.79 10056.88,30234.09 "/>
 <polygon class="fil102" points="10108.28,30234.09 10964.84,34031.79 10934,34031.79 10077.45,30234.09 "/>
 <polygon class="fil102" points="10128.85,30234.09 10985.4,34031.79 10954.55,34031.79 10098,30234.09 "/>
 <polygon class="fil102" points="10149.41,30234.09 11005.96,34031.79 10975.12,34031.79 10118.57,30234.09 "/>
 <polygon class="fil102" points="10169.97,30234.09 11026.52,34031.79 10995.67,34031.79 10139.12,30234.09 "/>
 <polygon class="fil102" points="10190.52,30234.09 11047.08,34031.79 11016.25,34031.79 10159.69,30234.09 "/>
 <polygon class="fil102" points="10211.1,30234.09 11067.64,34031.79 11036.8,34031.79 10180.25,30234.09 "/>
 <polygon class="fil103" points="10231.65,30234.09 11088.2,34031.79 11057.37,34031.79 10200.81,30234.09 "/>
 <polygon class="fil103" points="10252.22,30234.09 11108.77,34031.79 11077.91,34031.79 10221.37,30234.09 "/>
 <polygon class="fil104" points="10272.77,30234.09 11129.32,34031.79 11098.49,34031.79 10241.93,30234.09 "/>
 <polygon class="fil104" points="10293.34,30234.09 11149.9,34031.79 11119.05,34031.79 10262.5,30234.09 "/>
 <polygon class="fil104" points="10313.9,30234.09 11170.44,34031.79 11139.61,34031.79 10283.05,30234.09 "/>
 <polygon class="fil104" points="10334.46,30234.09 11191.02,34031.79 11160.17,34031.79 10303.62,30234.09 "/>
 <polygon class="fil104" points="10355.02,30234.09 11211.57,34031.79 11180.73,34031.79 10324.18,30234.09 "/>
 <polygon class="fil104" points="10375.58,30234.09 11232.14,34031.79 11201.29,34031.79 10344.74,30234.09 "/>
 <polygon class="fil104" points="10396.15,30234.09 11252.7,34031.79 11221.85,34031.79 10365.3,30234.09 "/>
 <polygon class="fil104" points="10416.71,30234.09 11273.26,34031.79 11242.42,34031.79 10385.87,30234.09 "/>
 <polygon class="fil104" points="10437.27,30234.09 11293.82,34031.79 11262.97,34031.79 10406.42,30234.09 "/>
 <polygon class="fil104" points="10457.82,30234.09 11314.38,34031.79 11283.54,34031.79 10426.99,30234.09 "/>
 <polygon class="fil104" points="10478.39,30234.09 11334.94,34031.79 11304.09,34031.79 10447.54,30234.09 "/>
 <polygon class="fil104" points="10498.95,30234.09 11355.5,34031.79 11324.67,34031.79 10468.11,30234.09 "/>
 <polygon class="fil104" points="10519.52,30234.09 11376.07,34031.79 11345.21,34031.79 10488.67,30234.09 "/>
 <polygon class="fil105" points="10540.07,30234.09 11396.62,34031.79 11365.79,34031.79 10509.23,30234.09 "/>
 <polygon class="fil105" points="10560.64,30234.09 11417.19,34031.79 11386.35,34031.79 10529.8,30234.09 "/>
 <polygon class="fil105" points="10581.19,30234.09 11437.74,34031.79 11406.91,34031.79 10550.35,30234.09 "/>
 <polygon class="fil106" points="10601.76,30234.09 11458.31,34031.79 11427.47,34031.79 10570.92,30234.09 "/>
 <polygon class="fil107" points="10622.32,30234.09 11478.86,34031.79 11448.03,34031.79 10591.48,30234.09 "/>
 <polygon class="fil107" points="10642.88,30234.09 11499.44,34031.79 11468.59,34031.79 10612.04,30234.09 "/>
 <polygon class="fil107" points="10663.44,30234.09 11519.98,34031.79 11489.16,34031.79 10632.6,30234.09 "/>
 <polygon class="fil107" points="10684,30234.09 11540.56,34031.79 11509.71,34031.79 10653.17,30234.09 "/>
 <polygon class="fil107" points="10704.57,30234.09 11561.12,34031.79 11530.27,34031.79 10673.72,30234.09 "/>
 <polygon class="fil107" points="10725.13,30234.09 11581.68,34031.79 11550.84,34031.79 10694.29,30234.09 "/>
 <polygon class="fil107" points="10745.69,30234.09 11602.24,34031.79 11571.39,34031.79 10714.84,30234.09 "/>
 <polygon class="fil107" points="10766.25,30234.09 11622.8,34031.79 11591.97,34031.79 10735.41,30234.09 "/>
 <polygon class="fil107" points="10786.81,30234.09 11643.36,34031.79 11612.51,34031.79 10755.97,30234.09 "/>
 <polygon class="fil107" points="10807.37,30234.09 11663.93,34031.79 11633.09,34031.79 10776.53,30234.09 "/>
 <polygon class="fil107" points="10827.94,30234.09 11684.49,34031.79 11653.63,34031.79 10797.09,30234.09 "/>
 <polygon class="fil107" points="10848.49,30234.09 11705.04,34031.79 11674.21,34031.79 10817.65,30234.09 "/>
 <polygon class="fil107" points="10869.06,30234.09 11725.61,34031.79 11694.77,34031.79 10838.22,30234.09 "/>
 <polygon class="fil108" points="10889.61,30234.09 11746.16,34031.79 11715.33,34031.79 10858.78,30234.09 "/>
 <polygon class="fil109" points="10910.18,30234.09 11766.74,34031.79 11735.89,34031.79 10879.34,30234.09 "/>
 <polygon class="fil109" points="10930.74,30234.09 11787.28,34031.79 11756.45,34031.79 10899.89,30234.09 "/>
 <polygon class="fil109" points="10951.3,30234.09 11807.86,34031.79 11777.01,34031.79 10920.46,30234.09 "/>
 <polygon class="fil109" points="10971.86,30234.09 11828.4,34031.79 11797.58,34031.79 10941.02,30234.09 "/>
 <polygon class="fil109" points="10992.42,30234.09 11848.98,34031.79 11818.14,34031.79 10961.59,30234.09 "/>
 <polygon class="fil110" points="11012.99,30234.09 11869.54,34031.79 11838.7,34031.79 10982.14,30234.09 "/>
 <polygon class="fil110" points="11033.55,30234.09 11890.1,34031.79 11859.26,34031.79 11002.71,30234.09 "/>
 <polygon class="fil110" points="11054.11,30234.09 11910.66,34031.79 11879.81,34031.79 11023.26,30234.09 "/>
 <polygon class="fil109" points="11074.67,30234.09 11931.23,34031.79 11900.38,34031.79 11043.83,30234.09 "/>
 <polygon class="fil109" points="11095.23,30234.09 11951.78,34031.79 11920.93,34031.79 11064.39,30234.09 "/>
 <polygon class="fil109" points="11115.79,30234.09 11972.35,34031.79 11941.51,34031.79 11084.95,30234.09 "/>
 <polygon class="fil109" points="11136.36,30234.09 11992.91,34031.79 11962.05,34031.79 11105.51,30234.09 "/>
 <polygon class="fil111" points="11156.91,30234.09 12013.46,34031.79 11982.63,34031.79 11126.07,30234.09 "/>
 <polygon class="fil111" points="11177.48,30234.09 12034.04,34031.79 12003.19,34031.79 11146.64,30234.09 "/>
 <polygon class="fil111" points="11198.04,30234.09 12054.58,34031.79 12023.75,34031.79 11167.2,30234.09 "/>
 <polygon class="fil111" points="11218.6,30234.09 12075.16,34031.79 12044.31,34031.79 11187.76,30234.09 "/>
 <polygon class="fil111" points="11239.16,30234.09 12095.7,34031.79 12064.87,34031.79 11208.32,30234.09 "/>
 <polygon class="fil111" points="11259.72,30234.09 12116.28,34031.79 12085.43,34031.79 11228.88,30234.09 "/>
 <polygon class="fil112" points="11280.29,30234.09 12136.84,34031.79 12106,34031.79 11249.44,30234.09 "/>
 <polygon class="fil112" points="11300.85,30234.09 12157.4,34031.79 12126.56,34031.79 11270.01,30234.09 "/>
 <polygon class="fil112" points="11321.41,30234.09 12177.96,34031.79 12147.12,34031.79 11290.56,30234.09 "/>
 <polygon class="fil113" points="11341.97,30234.09 12198.52,34031.79 12167.68,34031.79 11311.13,30234.09 "/>
 <polygon class="fil113" points="11362.53,30234.09 12219.08,34031.79 12188.23,34031.79 11331.68,30234.09 "/>
 <polygon class="fil114" points="11383.1,30234.09 12239.65,34031.79 12208.81,34031.79 11352.25,30234.09 "/>
 <polygon class="fil114" points="11403.66,30234.09 12260.2,34031.79 12229.35,34031.79 11372.81,30234.09 "/>
 <polygon class="fil114" points="11424.21,30234.09 12280.77,34031.79 12249.93,34031.79 11393.37,30234.09 "/>
 <polygon class="fil114" points="11444.78,30234.09 12301.33,34031.79 12270.47,34031.79 11413.93,30234.09 "/>
 <polygon class="fil115" points="11465.33,30234.09 12321.89,34031.79 12291.05,34031.79 11434.49,30234.09 "/>
 <polygon class="fil115" points="11485.9,30234.09 12342.45,34031.79 12311.61,34031.79 11455.06,30234.09 "/>
 <polygon class="fil115" points="11506.46,30234.09 12363,34031.79 12332.17,34031.79 11475.62,30234.09 "/>
 <polygon class="fil115" points="11527.02,30234.09 12383.58,34031.79 12352.73,34031.79 11496.18,30234.09 "/>
 <polygon class="fil115" points="11547.58,30234.09 12404.12,34031.79 12373.29,34031.79 11516.74,30234.09 "/>
 <polygon class="fil116" points="11568.14,30234.09 12424.7,34031.79 12393.85,34031.79 11537.3,30234.09 "/>
 <polygon class="fil116" points="11588.71,30234.09 12445.26,34031.79 12414.42,34031.79 11557.86,30234.09 "/>
 <polygon class="fil117" points="11609.27,30234.09 12465.82,34031.79 12434.97,34031.79 11578.43,30234.09 "/>
 <polygon class="fil117" points="11629.83,30234.09 12486.38,34031.79 12455.54,34031.79 11598.98,30234.09 "/>
 <polygon class="fil117" points="11650.39,30234.09 12506.94,34031.79 12476.1,34031.79 11619.55,30234.09 "/>
 <polygon class="fil117" points="11670.95,30234.09 12527.5,34031.79 12496.66,34031.79 11640.1,30234.09 "/>
 <polygon class="fil116" points="11691.51,30234.09 12548.07,34031.79 12517.22,34031.79 11660.67,30234.09 "/>
 <polygon class="fil116" points="11712.08,30234.09 12568.63,34031.79 12537.77,34031.79 11681.23,30234.09 "/>
 <polygon class="fil118" points="11732.63,30234.09 12589.19,34031.79 12558.35,34031.79 11701.79,30234.09 "/>
 <polygon class="fil119" points="11753.2,30234.09 12609.75,34031.79 12578.91,34031.79 11722.36,30234.09 "/>
 <polygon class="fil119" points="11773.75,30234.09 12630.31,34031.79 12599.47,34031.79 11742.92,30234.09 "/>
 <polygon class="fil119" points="11794.32,30234.09 12650.88,34031.79 12620.03,34031.79 11763.48,30234.09 "/>
 <polygon class="fil120" points="11814.88,30234.09 12671.42,34031.79 12640.59,34031.79 11784.04,30234.09 "/>
 <polygon class="fil121" points="11835.44,30234.09 12692,34031.79 12661.15,34031.79 11804.6,30234.09 "/>
 <polygon class="fil121" points="11856,30234.09 12712.54,34031.79 12681.72,34031.79 11825.17,30234.09 "/>
 <polygon class="fil121" points="11876.56,30234.09 12733.12,34031.79 12702.27,34031.79 11845.73,30234.09 "/>
 <polygon class="fil121" points="11897.13,30234.09 12753.68,34031.79 12722.84,34031.79 11866.29,30234.09 "/>
 <polygon class="fil121" points="11917.69,30234.09 12774.24,34031.79 12743.4,34031.79 11886.85,30234.09 "/>
 <polygon class="fil122" points="11938.25,30234.09 12794.8,34031.79 12763.96,34031.79 11907.4,30234.09 "/>
 <polygon class="fil123" points="11958.81,30234.09 12815.36,34031.79 12784.52,34031.79 11927.97,30234.09 "/>
 <polygon class="fil123" points="11979.37,30234.09 12835.92,34031.79 12805.08,34031.79 11948.53,30234.09 "/>
 <polygon class="fil123" points="11999.94,30234.09 12856.49,34031.79 12825.65,34031.79 11969.09,30234.09 "/>
 <polygon class="fil123" points="12020.5,30234.09 12877.04,34031.79 12846.19,34031.79 11989.65,30234.09 "/>
 <polygon class="fil124" points="12041.06,30234.09 12897.61,34031.79 12866.77,34031.79 12010.21,30234.09 "/>
 <polygon class="fil123" points="12061.62,30234.09 12918.17,34031.79 12887.33,34031.79 12030.78,30234.09 "/>
 <polygon class="fil123" points="12082.17,30234.09 12938.73,34031.79 12907.89,34031.79 12051.34,30234.09 "/>
 <polygon class="fil123" points="12102.74,30234.09 12959.29,34031.79 12928.45,34031.79 12071.9,30234.09 "/>
 <polygon class="fil123" points="12123.3,30234.09 12979.85,34031.79 12949.01,34031.79 12092.46,30234.09 "/>
 <polygon class="fil123" points="12143.86,30234.09 13000.42,34031.79 12969.57,34031.79 12113.02,30234.09 "/>
 <polygon class="fil125" points="12164.42,30234.09 13020.96,34031.79 12990.14,34031.79 12133.58,30234.09 "/>
 <polygon class="fil125" points="12184.98,30234.09 13041.54,34031.79 13010.69,34031.79 12154.15,30234.09 "/>
 <polygon class="fil125" points="12205.55,30234.09 13062.1,34031.79 13031.26,34031.79 12174.71,30234.09 "/>
 <polygon class="fil125" points="12226.11,30234.09 13082.66,34031.79 13051.81,34031.79 12195.27,30234.09 "/>
 <polygon class="fil125" points="12246.67,30234.09 13103.22,34031.79 13072.38,34031.79 12215.82,30234.09 "/>
 <polygon class="fil125" points="12267.23,30234.09 13123.79,34031.79 13092.95,34031.79 12236.39,30234.09 "/>
 <polygon class="fil126" points="12287.8,30234.09 13144.34,34031.79 13113.5,34031.79 12256.95,30234.09 "/>
 <polygon class="fil126" points="12308.36,30234.09 13164.91,34031.79 13134.06,34031.79 12277.51,30234.09 "/>
 <polygon class="fil126" points="12328.92,30234.09 13185.47,34031.79 13154.62,34031.79 12298.07,30234.09 "/>
 <polygon class="fil126" points="12349.48,30234.09 13206.03,34031.79 13175.19,34031.79 12318.63,30234.09 "/>
 <polygon class="fil126" points="12370.04,30234.09 13226.59,34031.79 13195.75,34031.79 12339.2,30234.09 "/>
 <polygon class="fil126" points="12390.6,30234.09 13247.15,34031.79 13216.31,34031.79 12359.76,30234.09 "/>
 <polygon class="fil126" points="12411.16,30234.09 13267.72,34031.79 13236.87,34031.79 12380.32,30234.09 "/>
 <polygon class="fil126" points="12431.72,30234.09 13288.27,34031.79 13257.43,34031.79 12400.88,30234.09 "/>
 <polygon class="fil126" points="12452.28,30234.09 13308.83,34031.79 13277.99,34031.79 12421.44,30234.09 "/>
 <polygon class="fil126" points="12472.84,30234.09 13329.39,34031.79 13298.56,34031.79 12442.01,30234.09 "/>
 <polygon class="fil126" points="12493.41,30234.09 13349.96,34031.79 13319.11,34031.79 12462.57,30234.09 "/>
 <polygon class="fil127" points="12513.97,30234.09 13370.52,34031.79 13339.68,34031.79 12483.13,30234.09 "/>
 <polygon class="fil127" points="12534.53,30234.09 13391.08,34031.79 13360.24,34031.79 12503.69,30234.09 "/>
 <polygon class="fil128" points="12555.09,30234.09 13411.64,34031.79 13380.8,34031.79 12524.25,30234.09 "/>
 <polygon class="fil128" points="12575.65,30234.09 13432.21,34031.79 13401.36,34031.79 12544.81,30234.09 "/>
 <polygon class="fil128" points="12596.22,30234.09 13452.76,34031.79 13421.92,34031.79 12565.37,30234.09 "/>
 <polygon class="fil128" points="12616.78,30234.09 13473.33,34031.79 13442.49,34031.79 12585.93,30234.09 "/>
 <polygon class="fil129" points="12637.34,30234.09 13493.88,34031.79 13463.04,34031.79 12606.49,30234.09 "/>
 <polygon class="fil129" points="12657.9,30234.09 13514.45,34031.79 13483.61,34031.79 12627.05,30234.09 "/>
 <polygon class="fil129" points="12678.46,30234.09 13535.01,34031.79 13504.16,34031.79 12647.61,30234.09 "/>
 <polygon class="fil129" points="12699.02,30234.09 13555.57,34031.79 13524.73,34031.79 12668.18,30234.09 "/>
 <polygon class="fil129" points="12719.58,30234.09 13576.13,34031.79 13545.29,34031.79 12688.74,30234.09 "/>
 <polygon class="fil130" points="12740.14,30234.09 13596.69,34031.79 13565.85,34031.79 12709.3,30234.09 "/>
 <polygon class="fil130" points="12760.7,30234.09 13617.26,34031.79 13586.41,34031.79 12729.86,30234.09 "/>
 <polygon class="fil130" points="12781.26,30234.09 13637.81,34031.79 13606.98,34031.79 12750.43,30234.09 "/>
 <polygon class="fil130" points="12801.83,30234.09 13658.38,34031.79 13627.54,34031.79 12770.99,30234.09 "/>
 <polygon class="fil130" points="12822.39,30234.09 13678.94,34031.79 13648.1,34031.79 12791.55,30234.09 "/>
 <polygon class="fil130" points="12842.95,30234.09 13699.5,34031.79 13668.66,34031.79 12812.11,30234.09 "/>
 <polygon class="fil130" points="12863.51,30234.09 13720.06,34031.79 13689.22,34031.79 12832.67,30234.09 "/>
 <polygon class="fil131" points="12884.07,30234.09 13740.63,34031.79 13709.79,34031.79 12853.23,30234.09 "/>
 <polygon class="fil131" points="12904.64,30234.09 13761.18,34031.79 13730.34,34031.79 12873.79,30234.09 "/>
 <polygon class="fil131" points="12925.2,30234.09 13781.75,34031.79 13750.9,34031.79 12894.35,30234.09 "/>
 <polygon class="fil132" points="12945.76,30234.09 13802.31,34031.79 13771.46,34031.79 12914.91,30234.09 "/>
 <polygon class="fil131" points="12966.32,30234.09 13822.87,34031.79 13792.03,34031.79 12935.48,30234.09 "/>
 <polygon class="fil132" points="12986.88,30234.09 13843.43,34031.79 13812.58,34031.79 12956.03,30234.09 "/>
 <polygon class="fil132" points="13007.44,30234.09 13863.99,34031.79 13833.15,34031.79 12976.6,30234.09 "/>
 <polygon class="fil132" points="13028,30234.09 13884.56,34031.79 13853.71,34031.79 12997.16,30234.09 "/>
 <polygon class="fil132" points="13048.56,30234.09 13905.11,34031.79 13874.28,34031.79 13017.72,30234.09 "/>
 <polygon class="fil133" points="13069.12,30234.09 13925.67,34031.79 13894.83,34031.79 13038.29,30234.09 "/>
 <polygon class="fil133" points="13089.68,30234.09 13946.23,34031.79 13915.4,34031.79 13058.85,30234.09 "/>
 <polygon class="fil134" points="13110.25,30234.09 13966.8,34031.79 13935.95,34031.79 13079.41,30234.09 "/>
 <polygon class="fil134" points="13130.8,30234.09 13987.35,34031.79 13956.52,34031.79 13099.97,30234.09 "/>
 <polygon class="fil135" points="13151.37,30234.09 14007.92,34031.79 13977.08,34031.79 13120.53,30234.09 "/>
 <polygon class="fil135" points="13171.93,30234.09 14028.48,34031.79 13997.64,34031.79 13141.09,30234.09 "/>
 <polygon class="fil135" points="13192.49,30234.09 14049.05,34031.79 14018.2,34031.79 13161.65,30234.09 "/>
 <polygon class="fil135" points="13213.06,30234.09 14069.6,34031.79 14038.76,34031.79 13182.21,30234.09 "/>
 <polygon class="fil136" points="13233.62,30234.09 14090.17,34031.79 14059.33,34031.79 13202.77,30234.09 "/>
 <polygon class="fil136" points="13254.18,30234.09 14110.72,34031.79 14079.88,34031.79 13223.33,30234.09 "/>
 <polygon class="fil136" points="13274.74,30234.09 14131.29,34031.79 14100.45,34031.79 13243.9,30234.09 "/>
 <polygon class="fil136" points="13295.3,30234.09 14151.85,34031.79 14121,34031.79 13264.45,30234.09 "/>
 <polygon class="fil136" points="13315.86,30234.09 14172.41,34031.79 14141.57,34031.79 13285.02,30234.09 "/>
 <polygon class="fil137" points="13336.42,30234.09 14192.97,34031.79 14162.12,34031.79 13305.58,30234.09 "/>
 <polygon class="fil137" points="13356.98,30234.09 14213.53,34031.79 14182.7,34031.79 13326.14,30234.09 "/>
 <polygon class="fil137" points="13377.55,30234.09 14234.1,34031.79 14203.25,34031.79 13346.71,30234.09 "/>
 <polygon class="fil137" points="13398.1,30234.09 14254.65,34031.79 14223.82,34031.79 13367.27,30234.09 "/>
 <polygon class="fil138" points="13418.67,30234.09 14275.22,34031.79 14244.37,34031.79 13387.83,30234.09 "/>
 <polygon class="fil138" points="13439.22,30234.09 14295.77,34031.79 14264.94,34031.79 13408.39,30234.09 "/>
 <polygon class="fil139" points="13459.79,30234.09 14316.35,34031.79 14285.5,34031.79 13428.95,30234.09 "/>
 <polygon class="fil139" points="13480.36,30234.09 14336.9,34031.79 14306.06,34031.79 13449.51,30234.09 "/>
 <polygon class="fil139" points="13500.91,30234.09 14357.47,34031.79 14326.63,34031.79 13470.07,30234.09 "/>
 <polygon class="fil139" points="13521.48,30234.09 14378.02,34031.79 14347.18,34031.79 13490.63,30234.09 "/>
 <polygon class="fil139" points="13542.04,30234.09 14398.59,34031.79 14367.74,34031.79 13511.19,30234.09 "/>
 <polygon class="fil139" points="13562.6,30234.09 14419.15,34031.79 14388.3,34031.79 13531.75,30234.09 "/>
 <polygon class="fil140" points="13583.16,30234.09 14439.71,34031.79 14408.87,34031.79 13552.32,30234.09 "/>
 <polygon class="fil140" points="13603.72,30234.09 14460.27,34031.79 14429.42,34031.79 13572.87,30234.09 "/>
 <polygon class="fil140" points="13624.28,30234.09 14480.83,34031.79 14449.99,34031.79 13593.44,30234.09 "/>
 <polygon class="fil139" points="13644.84,30234.09 14501.4,34031.79 14470.54,34031.79 13613.99,30234.09 "/>
 <polygon class="fil139" points="13665.4,30234.09 14521.95,34031.79 14491.12,34031.79 13634.56,30234.09 "/>
 <polygon class="fil139" points="13685.97,30234.09 14542.52,34031.79 14511.67,34031.79 13655.13,30234.09 "/>
 <polygon class="fil140" points="13706.52,30234.09 14563.07,34031.79 14532.24,34031.79 13675.69,30234.09 "/>
 <polygon class="fil140" points="13727.09,30234.09 14583.64,34031.79 14552.79,34031.79 13696.25,30234.09 "/>
 <polygon class="fil140" points="13747.64,30234.09 14604.19,34031.79 14573.36,34031.79 13716.81,30234.09 "/>
 <polygon class="fil140" points="13768.21,30234.09 14624.77,34031.79 14593.92,34031.79 13737.37,30234.09 "/>
 <polygon class="fil140" points="13788.77,30234.09 14645.31,34031.79 14614.48,34031.79 13757.93,30234.09 "/>
 <polygon class="fil140" points="13809.33,30234.09 14665.89,34031.79 14635.04,34031.79 13778.49,30234.09 "/>
 <polygon class="fil140" points="13829.9,30234.09 14686.44,34031.79 14655.6,34031.79 13799.05,30234.09 "/>
 <polygon class="fil140" points="13850.46,30234.09 14707.01,34031.79 14676.17,34031.79 13819.61,30234.09 "/>
 <polygon class="fil141" points="13871.02,30234.09 14727.57,34031.79 14696.72,34031.79 13840.17,30234.09 "/>
 <polygon class="fil141" points="13891.58,30234.09 14748.13,34031.79 14717.29,34031.79 13860.74,30234.09 "/>
 <polygon class="fil141" points="13912.14,30234.09 14768.69,34031.79 14737.84,34031.79 13881.29,30234.09 "/>
 <polygon class="fil142" points="13932.7,30234.09 14789.25,34031.79 14758.42,34031.79 13901.86,30234.09 "/>
 <polygon class="fil142" points="13953.26,30234.09 14809.81,34031.79 14778.96,34031.79 13922.42,30234.09 "/>
 <polygon class="fil143" points="13973.82,30234.09 14830.37,34031.79 14799.54,34031.79 13942.98,30234.09 "/>
 <polygon class="fil143" points="13994.39,30234.09 14850.94,34031.79 14820.08,34031.79 13963.54,30234.09 "/>
 <polygon class="fil143" points="14014.94,30234.09 14871.49,34031.79 14840.66,34031.79 13984.11,30234.09 "/>
 <polygon class="fil143" points="14035.51,30234.09 14892.06,34031.79 14861.22,34031.79 14004.67,30234.09 "/>
 <polygon class="fil144" points="14056.06,30234.09 14912.61,34031.79 14881.78,34031.79 14025.23,30234.09 "/>
 <polygon class="fil144" points="14076.63,30234.09 14933.19,34031.79 14902.34,34031.79 14045.79,30234.09 "/>
 <polygon class="fil145" points="14097.19,30234.09 14953.73,34031.79 14922.9,34031.79 14066.35,30234.09 "/>
 <polygon class="fil145" points="14117.75,30234.09 14974.31,34031.79 14943.47,34031.79 14086.91,30234.09 "/>
 <polygon class="fil144" points="14138.32,30234.09 14994.86,34031.79 14964.02,34031.79 14107.47,30234.09 "/>
 <polygon class="fil144" points="14158.88,30234.09 15015.43,34031.79 14984.58,34031.79 14128.04,30234.09 "/>
 <polygon class="fil144" points="14179.44,30234.09 15035.99,34031.79 15005.14,34031.79 14148.59,30234.09 "/>
 <polygon class="fil144" points="14200,30234.09 15056.55,34031.79 15025.71,34031.79 14169.16,30234.09 "/>
 <polygon class="fil144" points="14220.56,30234.09 15077.11,34031.79 15046.26,34031.79 14189.71,30234.09 "/>
 <polygon class="fil144" points="14241.12,30234.09 15097.67,34031.79 15066.84,34031.79 14210.28,30234.09 "/>
 <polygon class="fil144" points="14261.68,30234.09 15118.24,34031.79 15087.38,34031.79 14230.84,30234.09 "/>
 <polygon class="fil144" points="14282.24,30234.09 15138.79,34031.79 15107.96,34031.79 14251.4,30234.09 "/>
 <polygon class="fil146" points="14302.81,30234.09 15159.36,34031.79 15128.5,34031.79 14271.96,30234.09 "/>
 <polygon class="fil146" points="14323.36,30234.09 15179.91,34031.79 15149.08,34031.79 14292.52,30234.09 "/>
 <polygon class="fil147" points="14343.93,30234.09 15200.48,34031.79 15169.64,34031.79 14313.09,30234.09 "/>
 <polygon class="fil147" points="14364.48,30234.09 15221.03,34031.79 15190.2,34031.79 14333.65,30234.09 "/>
 <polygon class="fil147" points="14385.05,30234.09 15241.61,34031.79 15210.76,34031.79 14354.21,30234.09 "/>
 <polygon class="fil148" points="14405.61,30234.09 15262.15,34031.79 15231.32,34031.79 14374.77,30234.09 "/>
 <polygon class="fil149" points="14426.17,30234.09 15282.73,34031.79 15251.88,34031.79 14395.33,30234.09 "/>
 <polygon class="fil149" points="14446.74,30234.09 15303.29,34031.79 15272.44,34031.79 14415.89,30234.09 "/>
 <polygon class="fil149" points="14467.3,30234.09 15323.85,34031.79 15293.01,34031.79 14436.46,30234.09 "/>
 <polygon class="fil149" points="14487.86,30234.09 15344.41,34031.79 15313.56,34031.79 14457.01,30234.09 "/>
 <polygon class="fil149" points="14508.42,30234.09 15364.97,34031.79 15334.13,34031.79 14477.58,30234.09 "/>
 <polygon class="fil150" points="14528.98,30234.09 15385.53,34031.79 15354.68,34031.79 14498.13,30234.09 "/>
 <polygon class="fil149" points="14549.54,30234.09 15406.1,34031.79 15375.26,34031.79 14518.7,30234.09 "/>
 <polygon class="fil149" points="14570.11,30234.09 15426.65,34031.79 15395.8,34031.79 14539.26,30234.09 "/>
 <polygon class="fil149" points="14590.66,30234.09 15447.21,34031.79 15416.38,34031.79 14559.82,30234.09 "/>
 <polygon class="fil149" points="14611.23,30234.09 15467.78,34031.79 15436.92,34031.79 14580.38,30234.09 "/>
 <polygon class="fil149" points="14631.78,30234.09 15488.33,34031.79 15457.5,34031.79 14600.95,30234.09 "/>
 <polygon class="fil149" points="14652.35,30234.09 15508.91,34031.79 15478.06,34031.79 14621.51,30234.09 "/>
 <polygon class="fil149" points="14672.91,30234.09 15529.45,34031.79 15498.62,34031.79 14642.07,30234.09 "/>
 <polygon class="fil149" points="14693.47,30234.09 15550.03,34031.79 15519.18,34031.79 14662.63,30234.09 "/>
 <polygon class="fil149" points="14714.03,30234.09 15570.57,34031.79 15539.74,34031.79 14683.19,30234.09 "/>
 <polygon class="fil151" points="14734.59,30234.09 15591.15,34031.79 15560.31,34031.79 14703.75,30234.09 "/>
 <polygon class="fil152" points="14755.16,30234.09 15611.71,34031.79 15580.86,34031.79 14724.31,30234.09 "/>
 <polygon class="fil153" points="14775.72,30234.09 15632.27,34031.79 15601.42,34031.79 14744.88,30234.09 "/>
 <polygon class="fil153" points="14796.28,30234.09 15652.83,34031.79 15621.98,34031.79 14765.43,30234.09 "/>
 <polygon class="fil153" points="14816.84,30234.09 15673.39,34031.79 15642.55,34031.79 14786,30234.09 "/>
 <polygon class="fil153" points="14837.4,30234.09 15693.95,34031.79 15663.1,34031.79 14806.55,30234.09 "/>
 <polygon class="fil153" points="14857.96,30234.09 15714.52,34031.79 15683.68,34031.79 14827.12,30234.09 "/>
 <polygon class="fil154" points="14878.53,30234.09 15735.08,34031.79 15704.22,34031.79 14847.68,30234.09 "/>
 <polygon class="fil154" points="14899.08,30234.09 15755.63,34031.79 15724.8,34031.79 14868.24,30234.09 "/>
 <polygon class="fil155" points="14919.65,30234.09 15776.2,34031.79 15745.34,34031.79 14888.8,30234.09 "/>
 <polygon class="fil155" points="14940.2,30234.09 15796.75,34031.79 15765.92,34031.79 14909.36,30234.09 "/>
 <polygon class="fil155" points="14960.77,30234.09 15817.33,34031.79 15786.48,34031.79 14929.93,30234.09 "/>
 <polygon class="fil155" points="14981.33,30234.09 15837.87,34031.79 15807.04,34031.79 14950.49,30234.09 "/>
 <polygon class="fil156" points="15001.89,30234.09 15858.45,34031.79 15827.6,34031.79 14971.05,30234.09 "/>
 <polygon class="fil156" points="15022.45,30234.09 15878.99,34031.79 15848.17,34031.79 14991.61,30234.09 "/>
 <polygon class="fil156" points="15043.01,30234.09 15899.57,34031.79 15868.72,34031.79 15012.17,30234.09 "/>
 <polygon class="fil156" points="15063.58,30234.09 15920.13,34031.79 15889.29,34031.79 15032.73,30234.09 "/>
 <polygon class="fil156" points="15084.14,30234.09 15940.69,34031.79 15909.85,34031.79 15053.3,30234.09 "/>
 <polygon class="fil156" points="15104.7,30234.09 15961.25,34031.79 15930.4,34031.79 15073.85,30234.09 "/>
 <polygon class="fil157" points="15125.26,30234.09 15981.81,34031.79 15950.98,34031.79 15094.42,30234.09 "/>
 <polygon class="fil157" points="15145.82,30234.09 16002.37,34031.79 15971.52,34031.79 15114.98,30234.09 "/>
 <polygon class="fil157" points="15166.38,30234.09 16022.94,34031.79 15992.1,34031.79 15135.54,30234.09 "/>
 <polygon class="fil157" points="15186.95,30234.09 16043.49,34031.79 16012.64,34031.79 15156.1,30234.09 "/>
 <polygon class="fil157" points="15207.5,30234.09 16064.06,34031.79 16033.22,34031.79 15176.66,30234.09 "/>
 <polygon class="fil157" points="15228.07,30234.09 16084.62,34031.79 16053.78,34031.79 15197.23,30234.09 "/>
 <polygon class="fil157" points="15248.62,30234.09 16105.17,34031.79 16074.34,34031.79 15217.79,30234.09 "/>
 <polygon class="fil157" points="15269.19,30234.09 16125.75,34031.79 16094.9,34031.79 15238.35,30234.09 "/>
 <polygon class="fil157" points="15289.75,30234.09 16146.29,34031.79 16115.46,34031.79 15258.91,30234.09 "/>
 <polygon class="fil157" points="15310.31,30234.09 16166.87,34031.79 16136.02,34031.79 15279.47,30234.09 "/>
 <polygon class="fil158" points="15330.87,30234.09 16187.41,34031.79 16156.59,34031.79 15300.03,30234.09 "/>
 <polygon class="fil159" points="15351.43,30234.09 16207.99,34031.79 16177.14,34031.79 15320.6,30234.09 "/>
 <polygon class="fil159" points="15372,30234.09 16228.55,34031.79 16197.71,34031.79 15341.15,30234.09 "/>
 <polygon class="fil159" points="15392.56,30234.09 16248.1,34027.32 16248.1,34031.79 16218.27,34031.79 15361.72,30234.09 "/>
 <polygon class="fil159" points="15413.12,30234.09 16248.1,33936.14 16248.1,34031.79 16238.82,34031.79 15382.27,30234.09 "/>
 <polygon class="fil159" points="15433.68,30234.09 16248.1,33845 16248.1,33981.71 15402.84,30234.09 "/>
 <polygon class="fil158" points="15454.24,30234.09 16248.1,33753.83 16248.1,33890.62 15423.4,30234.09 "/>
 <polygon class="fil159" points="15474.8,30234.09 16248.1,33662.64 16248.1,33799.39 15443.96,30234.09 "/>
 <polygon class="fil159" points="15495.37,30234.09 16248.1,33571.5 16248.1,33708.29 15464.52,30234.09 "/>
 <polygon class="fil160" points="15515.92,30234.09 16248.1,33480.33 16248.1,33617.08 15485.08,30234.09 "/>
 <polygon class="fil160" points="15536.49,30234.09 16248.1,33389.14 16248.1,33525.89 15505.65,30234.09 "/>
 <polygon class="fil159" points="15557.04,30234.09 16248.1,33298.05 16248.1,33434.75 15526.21,30234.09 "/>
 <polygon class="fil159" points="15577.61,30234.09 16248.1,33206.83 16248.1,33343.58 15546.77,30234.09 "/>
 <polygon class="fil161" points="15598.17,30234.09 16248.1,33115.72 16248.1,33252.43 15567.33,30234.09 "/>
 <polygon class="fil161" points="15618.73,30234.09 16248.1,33024.51 16248.1,33161.26 15587.89,30234.09 "/>
 <polygon class="fil161" points="15639.3,30234.09 16248.1,32933.33 16248.1,33070.08 15608.46,30234.09 "/>
 <polygon class="fil161" points="15659.86,30234.09 16248.1,32842.19 16248.1,32978.94 15629.02,30234.09 "/>
 <polygon class="fil162" points="15680.42,30234.09 16248.1,32751.01 16248.1,32887.77 15649.57,30234.09 "/>
 <polygon class="fil162" points="15700.98,30234.09 16248.1,32659.87 16248.1,32796.62 15670.14,30234.09 "/>
 <polygon class="fil163" points="15721.54,30234.09 16248.1,32568.7 16248.1,32705.46 15690.69,30234.09 "/>
 <polygon class="fil163" points="15742.11,30234.09 16248.1,32477.51 16248.1,32614.26 15711.26,30234.09 "/>
 <polygon class="fil163" points="15762.67,30234.09 16248.1,32386.37 16248.1,32523.15 15731.82,30234.09 "/>
 <polygon class="fil164" points="15783.22,30234.09 16248.1,32295.21 16248.1,32431.95 15752.38,30234.09 "/>
 <polygon class="fil164" points="15803.79,30234.09 16248.1,32204.05 16248.1,32340.83 15772.94,30234.09 "/>
 <polygon class="fil165" points="15824.34,30234.09 16248.1,32112.89 16248.1,32249.63 15793.5,30234.09 "/>
 <polygon class="fil165" points="15844.91,30234.09 16248.1,32021.7 16248.1,32158.45 15814.07,30234.09 "/>
 <polygon class="fil165" points="15865.47,30234.09 16248.1,31930.56 16248.1,32067.31 15834.63,30234.09 "/>
 <polygon class="fil162" points="15886.03,30234.09 16248.1,31839.38 16248.1,31976.13 15855.19,30234.09 "/>
 <polygon class="fil162" points="15906.59,30234.09 16248.1,31748.27 16248.1,31884.99 15875.75,30234.09 "/>
 <polygon class="fil165" points="15927.15,30234.09 16248.1,31657.07 16248.1,31793.82 15896.31,30234.09 "/>
 <polygon class="fil165" points="15947.72,30234.09 16248.1,31565.88 16248.1,31702.63 15916.88,30234.09 "/>
 <polygon class="fil165" points="15968.28,30234.09 16248.1,31474.74 16248.1,31611.49 15937.44,30234.09 "/>
 <polygon class="fil165" points="15988.84,30234.09 16248.1,31383.57 16248.1,31520.33 15957.99,30234.09 "/>
 <polygon class="fil165" points="16009.4,30234.09 16248.1,31292.41 16248.1,31429.16 15978.56,30234.09 "/>
 <polygon class="fil165" points="16029.96,30234.09 16248.1,31201.25 16248.1,31338.02 15999.11,30234.09 "/>
 <polygon class="fil165" points="16050.53,30234.09 16248.1,31110.08 16248.1,31246.83 16019.68,30234.09 "/>
 <polygon class="fil166" points="16071.09,30234.09 16248.1,31018.92 16248.1,31155.7 16040.24,30234.09 "/>
 <polygon class="fil166" points="16091.65,30234.09 16248.1,30927.76 16248.1,31064.5 16060.8,30234.09 "/>
 <polygon class="fil167" points="16112.21,30234.09 16248.1,30836.6 16248.1,30973.38 16081.36,30234.09 "/>
 <polygon class="fil167" points="16132.76,30234.09 16248.1,30745.46 16248.1,30882.19 16101.92,30234.09 "/>
 <polygon class="fil167" points="16153.33,30234.09 16248.1,30654.26 16248.1,30791.01 16122.49,30234.09 "/>
 <polygon class="fil167" points="16173.89,30234.09 16248.1,30563.1 16248.1,30699.85 16143.05,30234.09 "/>
 <polygon class="fil167" points="16194.45,30234.09 16248.1,30471.94 16248.1,30608.69 16163.61,30234.09 "/>
 <polygon class="fil167" points="16215.01,30234.09 16248.1,30380.8 16248.1,30517.51 16184.18,30234.09 "/>
 <polygon class="fil167" points="16235.57,30234.09 16248.1,30289.63 16248.1,30426.35 16204.74,30234.09 "/>
 <polygon class="fil167" points="16248.1,30335.2 16225.3,30234.09 16248.1,30234.09 "/>
 <polygon class="fil167" points="16248.1,30244.03 16245.86,30234.09 16248.1,30234.09 "/>
 <g style="clip-path:url(#id0)">
 </g>
</symbol>
</svg>
